M48
;Layer_Color=9474304
;FILE_FORMAT=2:5
INCH,LZ
;TYPE=PLATED
T1F00S00C0.01575
T2F00S00C0.03150
T3F00S00C0.03543
T4F00S00C0.06299
;TYPE=NON_PLATED
T5F00S00C0.03150
T6F00S00C0.13780
%
T01
X-0011Y0127
X-00055
X0
Y01325
X-00055
X-0011
Y0138
X-00055
X0
X0044Y01215
X0078Y00985
T02
X-0167644Y0110902
Y01235
X-0086144
Y0110902
T03
X-0174Y0067
X-0164
X-0154
Y0077
X-0164
X-0174
X-0090894
X-0080894
X-0070894
Y0067
X-0080894
X-0090894
T04
X01345Y01695
X014828
X0067279Y017
X00535
X003972
X00155
X000172
X-0012059
X-004575
X-005953
X-0073309
X-0087089
X-012872
X-01425
X-015628
X-0170059
T05
X0003961Y0047499
X0013961
X0023961
X0033961
X0043961
X0053961
X0063961
X0073961
X0083961
X0093961
X0103961
X0113961
X0123961
X0133961
X0143961
Y0147499
X0133961
X0123961
X0113961
X0103961
X0093961
X0083961
X0073961
X0063961
X0053961
X0043961
X0033961
X0023961
X0013961
X0003961
X-0031039Y01425
X-0041039
X-0051039
X-0061039
Y00925
X-0051039
X-0041039
X-0031039
X-0071039
X-0081039
X-0091039
X-0101039
X-0113789
X-0123789
X-0133789
X-0143789
X-0153789
X-0163789
X-0173789
X-0183789
Y01425
X-0173789
X-0163789
X-0153789
X-0143789
X-0133789
X-0123789
X-0113789
X-0101039
X-0091039
X-0081039
X-0071039
T06
X0177165Y0177165
X-0108
X-01105Y00725
M30
