G04*
G04 #@! TF.GenerationSoftware,Altium Limited,Altium Designer,21.6.4 (81)*
G04*
G04 Layer_Color=128*
%FSLAX25Y25*%
%MOIN*%
G70*
G04*
G04 #@! TF.SameCoordinates,8F06FCA1-7B37-4D9B-8994-51CA7996DF63*
G04*
G04*
G04 #@! TF.FilePolarity,Positive*
G04*
G01*
G75*
%ADD44C,0.00200*%
D44*
X2386Y147499D02*
X5535D01*
X3961Y145924D02*
Y149074D01*
X12386Y147499D02*
X15535D01*
X13961Y145924D02*
Y149074D01*
X22386Y147499D02*
X25535D01*
X23961Y145924D02*
Y149074D01*
X32386Y147499D02*
X35535D01*
X33961Y145924D02*
Y149074D01*
X42386Y147499D02*
X45535D01*
X43961Y145924D02*
Y149074D01*
X52386Y147499D02*
X55535D01*
X53961Y145924D02*
Y149074D01*
X62386Y147499D02*
X65535D01*
X63961Y145924D02*
Y149074D01*
X72386Y147499D02*
X75535D01*
X73961Y145924D02*
Y149074D01*
X82386Y147499D02*
X85535D01*
X83961Y145924D02*
Y149074D01*
X92386Y147499D02*
X95535D01*
X93961Y145924D02*
Y149074D01*
X102386Y147499D02*
X105535D01*
X103961Y145924D02*
Y149074D01*
X112386Y147499D02*
X115535D01*
X113961Y145924D02*
Y149074D01*
X122386Y147499D02*
X125535D01*
X123961Y145924D02*
Y149074D01*
X132386Y147499D02*
X135535D01*
X133961Y145924D02*
Y149074D01*
X142386Y147499D02*
X145535D01*
X143961Y145924D02*
Y149074D01*
X142386Y47499D02*
X145535D01*
X143961Y45924D02*
Y49074D01*
X132386Y47499D02*
X135535D01*
X133961Y45924D02*
Y49074D01*
X122386Y47499D02*
X125535D01*
X123961Y45924D02*
Y49074D01*
X112386Y47499D02*
X115535D01*
X113961Y45924D02*
Y49074D01*
X102386Y47499D02*
X105535D01*
X103961Y45924D02*
Y49074D01*
X92386Y47499D02*
X95535D01*
X93961Y45924D02*
Y49074D01*
X82386Y47499D02*
X85535D01*
X83961Y45924D02*
Y49074D01*
X72386Y47499D02*
X75535D01*
X73961Y45924D02*
Y49074D01*
X62386Y47499D02*
X65535D01*
X63961Y45924D02*
Y49074D01*
X52386Y47499D02*
X55535D01*
X53961Y45924D02*
Y49074D01*
X42386Y47499D02*
X45535D01*
X43961Y45924D02*
Y49074D01*
X32386Y47499D02*
X35535D01*
X33961Y45924D02*
Y49074D01*
X22386Y47499D02*
X25535D01*
X23961Y45924D02*
Y49074D01*
X12386Y47499D02*
X15535D01*
X13961Y45924D02*
Y49074D01*
X2386Y47499D02*
X5535D01*
X3961Y45924D02*
Y49074D01*
X-145650Y170000D02*
X-139350D01*
X-142500Y166850D02*
Y173150D01*
X-173209Y170000D02*
X-166909D01*
X-170059Y166850D02*
Y173150D01*
X-159429Y170000D02*
X-153130D01*
X-156280Y166850D02*
Y173150D01*
X-131870Y170000D02*
X-125571D01*
X-128720Y166850D02*
Y173150D01*
X-114890Y177165D02*
X-101110D01*
X-108000Y170276D02*
Y184055D01*
X-90238Y170000D02*
X-83939D01*
X-87089Y166850D02*
Y173150D01*
X-48900Y170000D02*
X-42600D01*
X-45750Y166850D02*
Y173150D01*
X-62679Y170000D02*
X-56380D01*
X-59530Y166850D02*
Y173150D01*
X-76459Y170000D02*
X-70160D01*
X-73309Y166850D02*
Y173150D01*
X131350Y169500D02*
X137650D01*
X134500Y166350D02*
Y172650D01*
X145130Y169500D02*
X151429D01*
X148280Y166350D02*
Y172650D01*
X-115364Y142500D02*
X-112215D01*
X-113789Y140925D02*
Y144075D01*
X-185364Y142500D02*
X-182215D01*
X-183789Y140925D02*
Y144075D01*
X-175364Y142500D02*
X-172215D01*
X-173789Y140925D02*
Y144075D01*
X-165364Y142500D02*
X-162215D01*
X-163789Y140925D02*
Y144075D01*
X-155364Y142500D02*
X-152215D01*
X-153789Y140925D02*
Y144075D01*
X-145364Y142500D02*
X-142215D01*
X-143789Y140925D02*
Y144075D01*
X-135364Y142500D02*
X-132215D01*
X-133789Y140925D02*
Y144075D01*
X-125364Y142500D02*
X-122215D01*
X-123789Y140925D02*
Y144075D01*
X-115364Y92500D02*
X-112215D01*
X-113789Y90925D02*
Y94075D01*
X-125364Y92500D02*
X-122215D01*
X-123789Y90925D02*
Y94075D01*
X-135364Y92500D02*
X-132215D01*
X-133789Y90925D02*
Y94075D01*
X-145364Y92500D02*
X-142215D01*
X-143789Y90925D02*
Y94075D01*
X-155364Y92500D02*
X-152215D01*
X-153789Y90925D02*
Y94075D01*
X-165364Y92500D02*
X-162215D01*
X-163789Y90925D02*
Y94075D01*
X-175364Y92500D02*
X-172215D01*
X-173789Y90925D02*
Y94075D01*
X-185364Y92500D02*
X-182215D01*
X-183789Y90925D02*
Y94075D01*
X-32614Y142500D02*
X-29465D01*
X-31039Y140925D02*
Y144075D01*
X-102614Y142500D02*
X-99465D01*
X-101039Y140925D02*
Y144075D01*
X-92614Y142500D02*
X-89465D01*
X-91039Y140925D02*
Y144075D01*
X-82614Y142500D02*
X-79465D01*
X-81039Y140925D02*
Y144075D01*
X-72614Y142500D02*
X-69465D01*
X-71039Y140925D02*
Y144075D01*
X-62614Y142500D02*
X-59465D01*
X-61039Y140925D02*
Y144075D01*
X-52614Y142500D02*
X-49465D01*
X-51039Y140925D02*
Y144075D01*
X-42614Y142500D02*
X-39465D01*
X-41039Y140925D02*
Y144075D01*
X-32614Y92500D02*
X-29465D01*
X-31039Y90925D02*
Y94075D01*
X-42614Y92500D02*
X-39465D01*
X-41039Y90925D02*
Y94075D01*
X-52614Y92500D02*
X-49465D01*
X-51039Y90925D02*
Y94075D01*
X-62614Y92500D02*
X-59465D01*
X-61039Y90925D02*
Y94075D01*
X-72614Y92500D02*
X-69465D01*
X-71039Y90925D02*
Y94075D01*
X-82614Y92500D02*
X-79465D01*
X-81039Y90925D02*
Y94075D01*
X-92614Y92500D02*
X-89465D01*
X-91039Y90925D02*
Y94075D01*
X-102614Y92500D02*
X-99465D01*
X-101039Y90925D02*
Y94075D01*
X-72665Y77000D02*
X-69122D01*
X-70894Y75228D02*
Y78772D01*
X-72665Y67000D02*
X-69122D01*
X-70894Y65228D02*
Y68772D01*
X-82665Y77000D02*
X-79122D01*
X-80894Y75228D02*
Y78772D01*
X-82665Y67000D02*
X-79122D01*
X-80894Y65228D02*
Y68772D01*
X-92665Y77000D02*
X-89122D01*
X-90894Y75228D02*
Y78772D01*
X-92665Y67000D02*
X-89122D01*
X-90894Y65228D02*
Y68772D01*
X-155772Y77000D02*
X-152228D01*
X-154000Y75228D02*
Y78772D01*
X-155772Y67000D02*
X-152228D01*
X-154000Y65228D02*
Y68772D01*
X-165772Y77000D02*
X-162228D01*
X-164000Y75228D02*
Y78772D01*
X-165772Y67000D02*
X-162228D01*
X-164000Y65228D02*
Y68772D01*
X-175772Y77000D02*
X-172228D01*
X-174000Y75228D02*
Y78772D01*
X-175772Y67000D02*
X-172228D01*
X-174000Y65228D02*
Y68772D01*
X12350Y170000D02*
X18650D01*
X15500Y166850D02*
Y173150D01*
X-1429Y170000D02*
X4870D01*
X1720Y166850D02*
Y173150D01*
X-15209Y170000D02*
X-8909D01*
X-12059Y166850D02*
Y173150D01*
X64130Y170000D02*
X70429D01*
X67279Y166850D02*
Y173150D01*
X50350Y170000D02*
X56650D01*
X53500Y166850D02*
Y173150D01*
X36571Y170000D02*
X42870D01*
X39720Y166850D02*
Y173150D01*
X170276Y177165D02*
X184055D01*
X177165Y170276D02*
Y184055D01*
X-117390Y72500D02*
X-103610D01*
X-110500Y65610D02*
Y79390D01*
X-87719Y123500D02*
X-84569D01*
X-86144Y121925D02*
Y125075D01*
X-87719Y110902D02*
X-84569D01*
X-86144Y109327D02*
Y112476D01*
X-169219Y110902D02*
X-166069D01*
X-167644Y109327D02*
Y112476D01*
X-169219Y123500D02*
X-166069D01*
X-167644Y121925D02*
Y125075D01*
X77213Y98500D02*
X78787D01*
X78000Y97713D02*
Y99287D01*
X-787Y127000D02*
X787D01*
X0Y126213D02*
Y127787D01*
X-6287Y127000D02*
X-4713D01*
X-5500Y126213D02*
Y127787D01*
X-11787Y127000D02*
X-10213D01*
X-11000Y126213D02*
Y127787D01*
X-787Y132500D02*
X787D01*
X0Y131713D02*
Y133287D01*
X-6287Y132500D02*
X-4713D01*
X-5500Y131713D02*
Y133287D01*
X-11787Y132500D02*
X-10213D01*
X-11000Y131713D02*
Y133287D01*
X-6287Y138000D02*
X-4713D01*
X-5500Y137213D02*
Y138787D01*
X-787Y138000D02*
X787D01*
X0Y137213D02*
Y138787D01*
X-11787Y138000D02*
X-10213D01*
X-11000Y137213D02*
Y138787D01*
X43213Y121500D02*
X44787D01*
X44000Y120713D02*
Y122287D01*
M02*
