G04*
G04 #@! TF.GenerationSoftware,Altium Limited,Altium Designer,22.6.1 (34)*
G04*
G04 Layer_Color=8388736*
%FSLAX25Y25*%
%MOIN*%
G70*
G04*
G04 #@! TF.SameCoordinates,155C3C0F-C328-4BCA-876E-5E1AE029C65F*
G04*
G04*
G04 #@! TF.FilePolarity,Negative*
G04*
G01*
G75*
%ADD16R,0.03556X0.04343*%
%ADD17O,0.06706X0.08674*%
%ADD18R,0.06706X0.08674*%
%ADD19C,0.12611*%
%ADD20C,0.20485*%
%ADD21C,0.06706*%
%ADD22R,0.06706X0.06706*%
%ADD23O,0.12611X0.06706*%
%ADD24R,0.12611X0.06706*%
D16*
X15610Y158000D02*
D03*
X9390D02*
D03*
X-5890D02*
D03*
X-12110D02*
D03*
X60890D02*
D03*
X67110D02*
D03*
X39390D02*
D03*
X45610D02*
D03*
X89610Y98500D02*
D03*
X83390D02*
D03*
D17*
X3961Y147499D02*
D03*
X13961D02*
D03*
X23961D02*
D03*
X33961D02*
D03*
X43961D02*
D03*
X53961D02*
D03*
X63961D02*
D03*
X73961D02*
D03*
X83961D02*
D03*
X93961D02*
D03*
X103961D02*
D03*
X113961D02*
D03*
X123961D02*
D03*
X133961D02*
D03*
X143961D02*
D03*
Y47499D02*
D03*
X133961D02*
D03*
X123961D02*
D03*
X113961D02*
D03*
X103961D02*
D03*
X93961D02*
D03*
X83961D02*
D03*
X73961D02*
D03*
X63961D02*
D03*
X53961D02*
D03*
X43961D02*
D03*
X33961D02*
D03*
X23961D02*
D03*
X13961D02*
D03*
X-113789Y142500D02*
D03*
X-183789D02*
D03*
X-173789D02*
D03*
X-163789D02*
D03*
X-153789D02*
D03*
X-143789D02*
D03*
X-133789D02*
D03*
X-123789D02*
D03*
X-113789Y92500D02*
D03*
X-123789D02*
D03*
X-133789D02*
D03*
X-143789D02*
D03*
X-153789D02*
D03*
X-163789D02*
D03*
X-173789D02*
D03*
X-31039Y142500D02*
D03*
X-101039D02*
D03*
X-91039D02*
D03*
X-81039D02*
D03*
X-71039D02*
D03*
X-61039D02*
D03*
X-51039D02*
D03*
X-41039D02*
D03*
X-31039Y92500D02*
D03*
X-41039D02*
D03*
X-51039D02*
D03*
X-61039D02*
D03*
X-71039D02*
D03*
X-81039D02*
D03*
X-91039D02*
D03*
D18*
X3961Y47499D02*
D03*
X-183789Y92500D02*
D03*
X-101039D02*
D03*
D19*
X-142500Y170000D02*
D03*
X-170059D02*
D03*
X-156280D02*
D03*
X-128720D02*
D03*
X-87089D02*
D03*
X-45750D02*
D03*
X-59530D02*
D03*
X-73309D02*
D03*
X134500Y169500D02*
D03*
X148280D02*
D03*
X15500Y170000D02*
D03*
X1720D02*
D03*
X-12059D02*
D03*
X67279D02*
D03*
X53500D02*
D03*
X39720D02*
D03*
D20*
X-108000Y177165D02*
D03*
X177165D02*
D03*
X-110500Y72500D02*
D03*
D21*
X-70894Y77000D02*
D03*
Y67000D02*
D03*
X-80894Y77000D02*
D03*
Y67000D02*
D03*
X-90894Y77000D02*
D03*
X-154000D02*
D03*
Y67000D02*
D03*
X-164000Y77000D02*
D03*
Y67000D02*
D03*
X-174000Y77000D02*
D03*
D22*
X-90894Y67000D02*
D03*
X-174000D02*
D03*
D23*
X-86144Y123500D02*
D03*
X-167644D02*
D03*
D24*
X-86144Y110902D02*
D03*
X-167644D02*
D03*
M02*
