G04*
G04 #@! TF.GenerationSoftware,Altium Limited,Altium Designer,22.6.1 (34)*
G04*
G04 Layer_Physical_Order=2*
G04 Layer_Color=16711680*
%FSLAX25Y25*%
%MOIN*%
G70*
G04*
G04 #@! TF.SameCoordinates,155C3C0F-C328-4BCA-876E-5E1AE029C65F*
G04*
G04*
G04 #@! TF.FilePolarity,Positive*
G04*
G01*
G75*
%ADD28C,0.03937*%
%ADD32O,0.05906X0.07874*%
%ADD33R,0.05906X0.07874*%
%ADD34C,0.11811*%
%ADD35C,0.19685*%
%ADD36C,0.05906*%
%ADD37R,0.05906X0.05906*%
%ADD38O,0.11811X0.05906*%
%ADD39R,0.11811X0.05906*%
%ADD40C,0.03150*%
%ADD41R,0.15748X0.15748*%
%ADD42C,0.11811*%
G36*
X190240Y195329D02*
X191455Y194961D01*
X192575Y194362D01*
X193556Y193556D01*
X194362Y192575D01*
X194961Y191455D01*
X195329Y190240D01*
X195451Y189004D01*
X195445Y188976D01*
X195445Y47244D01*
X195451Y47217D01*
X195329Y45981D01*
X194961Y44765D01*
X194362Y43646D01*
X193556Y42664D01*
X192575Y41859D01*
X191455Y41260D01*
X190240Y40891D01*
X189004Y40769D01*
X188976Y40775D01*
X-188976D01*
X-189004Y40769D01*
X-190240Y40891D01*
X-191455Y41260D01*
X-192575Y41859D01*
X-193556Y42664D01*
X-194362Y43646D01*
X-194961Y44765D01*
X-195329Y45981D01*
X-195451Y47216D01*
X-195446Y47244D01*
X-195446Y188479D01*
X-195445Y188976D01*
X-195406Y189460D01*
X-195329Y190240D01*
X-194961Y191455D01*
X-194362Y192575D01*
X-193556Y193556D01*
X-192575Y194362D01*
X-191455Y194961D01*
X-190240Y195329D01*
X-189004Y195451D01*
X-188976Y195445D01*
X188976Y195445D01*
X189004Y195451D01*
X190240Y195329D01*
D02*
G37*
%LPC*%
G36*
X67279Y177121D02*
X65890Y176984D01*
X64555Y176579D01*
X63323Y175921D01*
X62244Y175035D01*
X61359Y173956D01*
X60701Y172725D01*
X60640Y172524D01*
X60140D01*
X60079Y172725D01*
X59421Y173956D01*
X58535Y175035D01*
X57456Y175921D01*
X56225Y176579D01*
X54889Y176984D01*
X53500Y177121D01*
X52111Y176984D01*
X50775Y176579D01*
X49544Y175921D01*
X48465Y175035D01*
X47579Y173956D01*
X46921Y172725D01*
X46860Y172524D01*
X46360D01*
X46299Y172725D01*
X45641Y173956D01*
X44756Y175035D01*
X43677Y175921D01*
X42445Y176579D01*
X41110Y176984D01*
X40705Y177024D01*
Y170000D01*
X39720D01*
D01*
X40705D01*
Y162976D01*
X41110Y163016D01*
X42445Y163421D01*
X43677Y164079D01*
X44756Y164965D01*
X45641Y166044D01*
X46299Y167275D01*
X46360Y167476D01*
X46860D01*
X46921Y167275D01*
X47579Y166044D01*
X48465Y164965D01*
X49544Y164079D01*
X50775Y163421D01*
X52111Y163016D01*
X53500Y162879D01*
X54889Y163016D01*
X56225Y163421D01*
X57456Y164079D01*
X58535Y164965D01*
X59421Y166044D01*
X60079Y167275D01*
X60140Y167476D01*
X60640D01*
X60701Y167275D01*
X61359Y166044D01*
X62244Y164965D01*
X63323Y164079D01*
X64555Y163421D01*
X65890Y163016D01*
X67279Y162879D01*
X68669Y163016D01*
X70005Y163421D01*
X71236Y164079D01*
X72315Y164965D01*
X73200Y166044D01*
X73858Y167275D01*
X74264Y168611D01*
X74400Y170000D01*
X74264Y171389D01*
X73858Y172725D01*
X73200Y173956D01*
X72315Y175035D01*
X71236Y175921D01*
X70005Y176579D01*
X68669Y176984D01*
X67279Y177121D01*
D02*
G37*
G36*
X15500D02*
X14111Y176984D01*
X12775Y176579D01*
X11544Y175921D01*
X10465Y175035D01*
X9579Y173956D01*
X8921Y172725D01*
X8860Y172524D01*
X8360D01*
X8299Y172725D01*
X7641Y173956D01*
X6756Y175035D01*
X5677Y175921D01*
X4445Y176579D01*
X3110Y176984D01*
X1720Y177121D01*
X331Y176984D01*
X-1005Y176579D01*
X-2236Y175921D01*
X-3315Y175035D01*
X-4200Y173956D01*
X-4858Y172725D01*
X-4919Y172524D01*
X-5419D01*
X-5480Y172725D01*
X-6138Y173956D01*
X-7024Y175035D01*
X-8103Y175921D01*
X-9334Y176579D01*
X-10670Y176984D01*
X-11075Y177024D01*
Y170000D01*
Y162976D01*
X-10670Y163016D01*
X-9334Y163421D01*
X-8103Y164079D01*
X-7024Y164965D01*
X-6138Y166044D01*
X-5480Y167275D01*
X-5419Y167476D01*
X-4919D01*
X-4858Y167275D01*
X-4200Y166044D01*
X-3315Y164965D01*
X-2236Y164079D01*
X-1005Y163421D01*
X331Y163016D01*
X1720Y162879D01*
X3110Y163016D01*
X4445Y163421D01*
X5677Y164079D01*
X6756Y164965D01*
X7641Y166044D01*
X8299Y167275D01*
X8360Y167476D01*
X8860D01*
X8921Y167275D01*
X9579Y166044D01*
X10465Y164965D01*
X11544Y164079D01*
X12775Y163421D01*
X14111Y163016D01*
X15500Y162879D01*
X16889Y163016D01*
X18225Y163421D01*
X19456Y164079D01*
X20535Y164965D01*
X21421Y166044D01*
X22079Y167275D01*
X22484Y168611D01*
X22621Y170000D01*
X22484Y171389D01*
X22079Y172725D01*
X21421Y173956D01*
X20535Y175035D01*
X19456Y175921D01*
X18225Y176579D01*
X16889Y176984D01*
X15500Y177121D01*
D02*
G37*
G36*
X-45750D02*
X-47139Y176984D01*
X-48475Y176579D01*
X-49706Y175921D01*
X-50785Y175035D01*
X-51671Y173956D01*
X-52329Y172725D01*
X-52390Y172524D01*
X-52890D01*
X-52951Y172725D01*
X-53609Y173956D01*
X-54494Y175035D01*
X-55573Y175921D01*
X-56805Y176579D01*
X-58140Y176984D01*
X-59530Y177121D01*
X-60919Y176984D01*
X-62255Y176579D01*
X-63486Y175921D01*
X-64565Y175035D01*
X-65450Y173956D01*
X-66108Y172725D01*
X-66169Y172524D01*
X-66669D01*
X-66730Y172725D01*
X-67388Y173956D01*
X-68274Y175035D01*
X-69353Y175921D01*
X-70584Y176579D01*
X-71920Y176984D01*
X-73309Y177121D01*
X-74698Y176984D01*
X-76034Y176579D01*
X-77265Y175921D01*
X-78344Y175035D01*
X-79230Y173956D01*
X-79888Y172725D01*
X-79949Y172524D01*
X-80449D01*
X-80510Y172725D01*
X-81168Y173956D01*
X-82053Y175035D01*
X-83132Y175921D01*
X-84364Y176579D01*
X-85699Y176984D01*
X-87089Y177121D01*
X-88478Y176984D01*
X-89814Y176579D01*
X-91045Y175921D01*
X-92124Y175035D01*
X-93009Y173956D01*
X-93667Y172725D01*
X-94073Y171389D01*
X-94209Y170000D01*
X-94073Y168611D01*
X-93667Y167275D01*
X-93009Y166044D01*
X-92124Y164965D01*
X-91045Y164079D01*
X-89814Y163421D01*
X-88478Y163016D01*
X-87089Y162879D01*
X-85699Y163016D01*
X-84364Y163421D01*
X-83132Y164079D01*
X-82053Y164965D01*
X-81168Y166044D01*
X-80510Y167275D01*
X-80449Y167476D01*
X-79949D01*
X-79888Y167275D01*
X-79230Y166044D01*
X-78344Y164965D01*
X-77265Y164079D01*
X-76034Y163421D01*
X-74698Y163016D01*
X-73309Y162879D01*
X-71920Y163016D01*
X-70584Y163421D01*
X-69353Y164079D01*
X-68274Y164965D01*
X-67388Y166044D01*
X-66730Y167275D01*
X-66669Y167476D01*
X-66169D01*
X-66108Y167275D01*
X-65450Y166044D01*
X-64565Y164965D01*
X-63486Y164079D01*
X-62255Y163421D01*
X-60919Y163016D01*
X-59530Y162879D01*
X-58140Y163016D01*
X-56805Y163421D01*
X-55573Y164079D01*
X-54494Y164965D01*
X-53609Y166044D01*
X-52951Y167275D01*
X-52890Y167476D01*
X-52390D01*
X-52329Y167275D01*
X-51671Y166044D01*
X-50785Y164965D01*
X-49706Y164079D01*
X-48475Y163421D01*
X-47139Y163016D01*
X-45750Y162879D01*
X-44361Y163016D01*
X-43025Y163421D01*
X-41794Y164079D01*
X-40715Y164965D01*
X-39829Y166044D01*
X-39171Y167275D01*
X-38766Y168611D01*
X-38629Y170000D01*
X-38766Y171389D01*
X-39171Y172725D01*
X-39829Y173956D01*
X-40715Y175035D01*
X-41794Y175921D01*
X-43025Y176579D01*
X-44361Y176984D01*
X-45750Y177121D01*
D02*
G37*
G36*
X-128720D02*
X-130110Y176984D01*
X-131446Y176579D01*
X-132677Y175921D01*
X-133756Y175035D01*
X-134641Y173956D01*
X-135299Y172725D01*
X-135360Y172524D01*
X-135860D01*
X-135921Y172725D01*
X-136579Y173956D01*
X-137465Y175035D01*
X-138544Y175921D01*
X-139775Y176579D01*
X-141111Y176984D01*
X-142500Y177121D01*
X-143889Y176984D01*
X-145225Y176579D01*
X-146456Y175921D01*
X-147535Y175035D01*
X-148421Y173956D01*
X-149079Y172725D01*
X-149140Y172524D01*
X-149640D01*
X-149701Y172725D01*
X-150359Y173956D01*
X-151244Y175035D01*
X-152323Y175921D01*
X-153554Y176579D01*
X-154890Y176984D01*
X-156280Y177121D01*
X-157669Y176984D01*
X-159005Y176579D01*
X-160236Y175921D01*
X-161315Y175035D01*
X-162200Y173956D01*
X-162858Y172725D01*
X-162919Y172524D01*
X-163419D01*
X-163480Y172725D01*
X-164138Y173956D01*
X-165024Y175035D01*
X-166103Y175921D01*
X-167334Y176579D01*
X-168670Y176984D01*
X-170059Y177121D01*
X-171448Y176984D01*
X-172784Y176579D01*
X-174015Y175921D01*
X-175094Y175035D01*
X-175980Y173956D01*
X-176638Y172725D01*
X-177043Y171389D01*
X-177180Y170000D01*
X-177043Y168611D01*
X-176638Y167275D01*
X-175980Y166044D01*
X-175094Y164965D01*
X-174015Y164079D01*
X-172784Y163421D01*
X-171448Y163016D01*
X-170059Y162879D01*
X-168670Y163016D01*
X-167334Y163421D01*
X-166103Y164079D01*
X-165024Y164965D01*
X-164138Y166044D01*
X-163480Y167275D01*
X-163419Y167476D01*
X-162919D01*
X-162858Y167275D01*
X-162200Y166044D01*
X-161315Y164965D01*
X-160236Y164079D01*
X-159005Y163421D01*
X-157669Y163016D01*
X-156280Y162879D01*
X-154890Y163016D01*
X-153554Y163421D01*
X-152323Y164079D01*
X-151244Y164965D01*
X-150359Y166044D01*
X-149701Y167275D01*
X-149640Y167476D01*
X-149140D01*
X-149079Y167275D01*
X-148421Y166044D01*
X-147535Y164965D01*
X-146456Y164079D01*
X-145225Y163421D01*
X-143889Y163016D01*
X-142500Y162879D01*
X-141111Y163016D01*
X-139775Y163421D01*
X-138544Y164079D01*
X-137465Y164965D01*
X-136579Y166044D01*
X-135921Y167275D01*
X-135860Y167476D01*
X-135360D01*
X-135299Y167275D01*
X-134641Y166044D01*
X-133756Y164965D01*
X-132677Y164079D01*
X-131446Y163421D01*
X-130110Y163016D01*
X-128720Y162879D01*
X-127331Y163016D01*
X-125995Y163421D01*
X-124764Y164079D01*
X-123685Y164965D01*
X-122800Y166044D01*
X-122142Y167275D01*
X-121736Y168611D01*
X-121600Y170000D01*
X-121736Y171389D01*
X-122142Y172725D01*
X-122800Y173956D01*
X-123685Y175035D01*
X-124764Y175921D01*
X-125995Y176579D01*
X-127331Y176984D01*
X-128720Y177121D01*
D02*
G37*
G36*
X148280Y176621D02*
X146890Y176484D01*
X145554Y176079D01*
X144323Y175421D01*
X143244Y174535D01*
X142359Y173456D01*
X141701Y172225D01*
X141640Y172024D01*
X141140D01*
X141079Y172225D01*
X140421Y173456D01*
X139535Y174535D01*
X138456Y175421D01*
X137225Y176079D01*
X135889Y176484D01*
X135484Y176524D01*
Y169500D01*
Y162476D01*
X135889Y162516D01*
X137225Y162921D01*
X138456Y163579D01*
X139535Y164465D01*
X140421Y165544D01*
X141079Y166775D01*
X141140Y166976D01*
X141640D01*
X141701Y166775D01*
X142359Y165544D01*
X143244Y164465D01*
X147379Y160330D01*
Y151591D01*
X147078Y151489D01*
X146879Y151455D01*
X146045Y152094D01*
X145040Y152511D01*
X143961Y152653D01*
X142882Y152511D01*
X141876Y152094D01*
X141012Y151432D01*
X140350Y150568D01*
X139933Y149563D01*
X139791Y148483D01*
Y146515D01*
X139933Y145436D01*
X140350Y144430D01*
X141012Y143567D01*
X141876Y142904D01*
X142882Y142487D01*
X143961Y142345D01*
X145040Y142487D01*
X146045Y142904D01*
X146879Y143544D01*
X147078Y143509D01*
X147379Y143407D01*
Y141488D01*
X143480D01*
Y123378D01*
X161591D01*
Y134089D01*
X161621Y134398D01*
Y163279D01*
X161484Y164669D01*
X161079Y166005D01*
X160421Y167236D01*
X159535Y168315D01*
X159535Y168315D01*
X153315Y174535D01*
X152236Y175421D01*
X151005Y176079D01*
X149669Y176484D01*
X148280Y176621D01*
D02*
G37*
G36*
X38736Y177024D02*
X38331Y176984D01*
X36995Y176579D01*
X35764Y175921D01*
X34685Y175035D01*
X33800Y173956D01*
X33142Y172725D01*
X32736Y171389D01*
X32697Y170984D01*
X38736D01*
Y177024D01*
D02*
G37*
G36*
X-13043D02*
X-13448Y176984D01*
X-14784Y176579D01*
X-16015Y175921D01*
X-17094Y175035D01*
X-17980Y173956D01*
X-18638Y172725D01*
X-19043Y171389D01*
X-19083Y170984D01*
X-13043D01*
Y177024D01*
D02*
G37*
G36*
X133516Y176524D02*
X133111Y176484D01*
X131775Y176079D01*
X130544Y175421D01*
X129465Y174535D01*
X128579Y173456D01*
X127921Y172225D01*
X127516Y170889D01*
X127476Y170484D01*
X133516D01*
Y176524D01*
D02*
G37*
G36*
X177165Y188223D02*
X175435Y188087D01*
X173748Y187682D01*
X172145Y187018D01*
X170666Y186111D01*
X169346Y184984D01*
X168219Y183665D01*
X167313Y182185D01*
X166649Y180582D01*
X166244Y178895D01*
X166108Y177165D01*
X166244Y175435D01*
X166649Y173748D01*
X167313Y172145D01*
X168219Y170666D01*
X169346Y169346D01*
X170666Y168219D01*
X172145Y167313D01*
X173748Y166649D01*
X175435Y166244D01*
X177165Y166108D01*
X178895Y166244D01*
X180582Y166649D01*
X182185Y167313D01*
X183665Y168219D01*
X184984Y169346D01*
X186111Y170666D01*
X187018Y172145D01*
X187682Y173748D01*
X188087Y175435D01*
X188223Y177165D01*
X188087Y178895D01*
X187682Y180582D01*
X187018Y182185D01*
X186111Y183665D01*
X184984Y184984D01*
X183665Y186111D01*
X182185Y187018D01*
X180582Y187682D01*
X178895Y188087D01*
X177165Y188223D01*
D02*
G37*
G36*
X-108000D02*
X-109730Y188087D01*
X-111417Y187682D01*
X-113020Y187018D01*
X-114500Y186111D01*
X-115819Y184984D01*
X-116946Y183665D01*
X-117852Y182185D01*
X-118517Y180582D01*
X-118922Y178895D01*
X-119058Y177165D01*
X-118922Y175435D01*
X-118517Y173748D01*
X-117852Y172145D01*
X-116946Y170666D01*
X-115819Y169346D01*
X-114500Y168219D01*
X-113020Y167313D01*
X-111417Y166649D01*
X-109730Y166244D01*
X-108000Y166108D01*
X-106270Y166244D01*
X-104583Y166649D01*
X-102980Y167313D01*
X-101500Y168219D01*
X-100181Y169346D01*
X-99054Y170666D01*
X-98147Y172145D01*
X-97483Y173748D01*
X-97078Y175435D01*
X-96942Y177165D01*
X-97078Y178895D01*
X-97483Y180582D01*
X-98147Y182185D01*
X-99054Y183665D01*
X-100181Y184984D01*
X-101500Y186111D01*
X-102980Y187018D01*
X-104583Y187682D01*
X-106270Y188087D01*
X-108000Y188223D01*
D02*
G37*
G36*
X38736Y169016D02*
X32697D01*
X32736Y168611D01*
X33142Y167275D01*
X33800Y166044D01*
X34685Y164965D01*
X35764Y164079D01*
X36995Y163421D01*
X38331Y163016D01*
X38736Y162976D01*
Y169016D01*
D02*
G37*
G36*
X-13043D02*
X-19083D01*
X-19043Y168611D01*
X-18638Y167275D01*
X-17980Y166044D01*
X-17094Y164965D01*
X-16015Y164079D01*
X-14784Y163421D01*
X-13448Y163016D01*
X-13043Y162976D01*
Y169016D01*
D02*
G37*
G36*
X133516Y168516D02*
X127476D01*
X127516Y168111D01*
X127921Y166775D01*
X128579Y165544D01*
X129465Y164465D01*
X130544Y163579D01*
X131775Y162921D01*
X133111Y162516D01*
X133516Y162476D01*
Y168516D01*
D02*
G37*
G36*
X134945Y152523D02*
Y148483D01*
X138130D01*
Y148483D01*
X137988Y149563D01*
X137572Y150568D01*
X136909Y151432D01*
X136045Y152094D01*
X135040Y152511D01*
X134945Y152523D01*
D02*
G37*
G36*
X132976D02*
X132881Y152511D01*
X131876Y152094D01*
X131012Y151432D01*
X130350Y150568D01*
X129933Y149563D01*
X129791Y148483D01*
Y148483D01*
X132976D01*
Y152523D01*
D02*
G37*
G36*
X-30055Y147524D02*
Y143484D01*
X-26870D01*
Y143484D01*
X-27012Y144563D01*
X-27428Y145569D01*
X-28091Y146433D01*
X-28955Y147095D01*
X-29960Y147512D01*
X-30055Y147524D01*
D02*
G37*
G36*
X-90055D02*
Y143484D01*
X-86870D01*
Y143484D01*
X-87012Y144563D01*
X-87428Y145569D01*
X-88091Y146433D01*
X-88955Y147095D01*
X-89960Y147512D01*
X-90055Y147524D01*
D02*
G37*
G36*
X-112805D02*
Y143484D01*
X-109620D01*
Y143484D01*
X-109762Y144563D01*
X-110178Y145569D01*
X-110841Y146433D01*
X-111705Y147095D01*
X-112710Y147512D01*
X-112805Y147524D01*
D02*
G37*
G36*
X-172805D02*
Y143484D01*
X-169620D01*
Y143484D01*
X-169762Y144563D01*
X-170178Y145569D01*
X-170841Y146433D01*
X-171705Y147095D01*
X-172710Y147512D01*
X-172805Y147524D01*
D02*
G37*
G36*
X-32024Y147524D02*
X-32119Y147512D01*
X-33124Y147095D01*
X-33988Y146433D01*
X-34650Y145569D01*
X-35067Y144563D01*
X-35209Y143484D01*
Y143484D01*
X-32024D01*
Y147524D01*
D02*
G37*
G36*
X-92024D02*
X-92119Y147512D01*
X-93124Y147095D01*
X-93988Y146433D01*
X-94650Y145569D01*
X-95067Y144563D01*
X-95209Y143484D01*
Y143484D01*
X-92024D01*
Y147524D01*
D02*
G37*
G36*
X-114774D02*
X-114869Y147512D01*
X-115874Y147095D01*
X-116738Y146433D01*
X-117400Y145569D01*
X-117817Y144563D01*
X-117959Y143484D01*
Y143484D01*
X-114774D01*
Y147524D01*
D02*
G37*
G36*
X-174774D02*
X-174869Y147512D01*
X-175874Y147095D01*
X-176738Y146433D01*
X-177400Y145569D01*
X-177817Y144563D01*
X-177959Y143484D01*
Y143484D01*
X-174774D01*
Y147524D01*
D02*
G37*
G36*
X138130Y146515D02*
X134945D01*
Y142475D01*
X135040Y142487D01*
X136045Y142904D01*
X136909Y143567D01*
X137572Y144430D01*
X137988Y145436D01*
X138130Y146515D01*
Y146515D01*
D02*
G37*
G36*
X132976D02*
X129791D01*
Y146515D01*
X129933Y145436D01*
X130350Y144430D01*
X131012Y143567D01*
X131876Y142904D01*
X132881Y142487D01*
X132976Y142475D01*
Y146515D01*
D02*
G37*
G36*
X123961Y152653D02*
X122881Y152511D01*
X121876Y152094D01*
X121012Y151432D01*
X120350Y150568D01*
X119933Y149563D01*
X119791Y148483D01*
Y146515D01*
X119933Y145436D01*
X120350Y144430D01*
X121012Y143567D01*
X121876Y142904D01*
X122881Y142487D01*
X123961Y142345D01*
X125040Y142487D01*
X126045Y142904D01*
X126909Y143567D01*
X127571Y144430D01*
X127988Y145436D01*
X128130Y146515D01*
Y148483D01*
X127988Y149563D01*
X127571Y150568D01*
X126909Y151432D01*
X126045Y152094D01*
X125040Y152511D01*
X123961Y152653D01*
D02*
G37*
G36*
X113961D02*
X112882Y152511D01*
X111876Y152094D01*
X111012Y151432D01*
X110350Y150568D01*
X109933Y149563D01*
X109791Y148483D01*
Y146515D01*
X109933Y145436D01*
X110350Y144430D01*
X111012Y143567D01*
X111876Y142904D01*
X112882Y142487D01*
X113961Y142345D01*
X115040Y142487D01*
X116045Y142904D01*
X116909Y143567D01*
X117571Y144430D01*
X117988Y145436D01*
X118130Y146515D01*
Y148483D01*
X117988Y149563D01*
X117571Y150568D01*
X116909Y151432D01*
X116045Y152094D01*
X115040Y152511D01*
X113961Y152653D01*
D02*
G37*
G36*
X103961D02*
X102882Y152511D01*
X101876Y152094D01*
X101012Y151432D01*
X100350Y150568D01*
X99933Y149563D01*
X99791Y148483D01*
Y146515D01*
X99933Y145436D01*
X100350Y144430D01*
X101012Y143567D01*
X101876Y142904D01*
X102882Y142487D01*
X103961Y142345D01*
X105040Y142487D01*
X106045Y142904D01*
X106909Y143567D01*
X107571Y144430D01*
X107988Y145436D01*
X108130Y146515D01*
Y148483D01*
X107988Y149563D01*
X107571Y150568D01*
X106909Y151432D01*
X106045Y152094D01*
X105040Y152511D01*
X103961Y152653D01*
D02*
G37*
G36*
X93961D02*
X92882Y152511D01*
X91876Y152094D01*
X91012Y151432D01*
X90350Y150568D01*
X89933Y149563D01*
X89791Y148483D01*
Y146515D01*
X89933Y145436D01*
X90350Y144430D01*
X91012Y143567D01*
X91876Y142904D01*
X92882Y142487D01*
X93961Y142345D01*
X95040Y142487D01*
X96045Y142904D01*
X96909Y143567D01*
X97571Y144430D01*
X97988Y145436D01*
X98130Y146515D01*
Y148483D01*
X97988Y149563D01*
X97571Y150568D01*
X96909Y151432D01*
X96045Y152094D01*
X95040Y152511D01*
X93961Y152653D01*
D02*
G37*
G36*
X83961D02*
X82881Y152511D01*
X81876Y152094D01*
X81012Y151432D01*
X80350Y150568D01*
X79933Y149563D01*
X79791Y148483D01*
Y146515D01*
X79933Y145436D01*
X80350Y144430D01*
X81012Y143567D01*
X81876Y142904D01*
X82881Y142487D01*
X83961Y142345D01*
X85040Y142487D01*
X86045Y142904D01*
X86909Y143567D01*
X87572Y144430D01*
X87988Y145436D01*
X88130Y146515D01*
Y148483D01*
X87988Y149563D01*
X87572Y150568D01*
X86909Y151432D01*
X86045Y152094D01*
X85040Y152511D01*
X83961Y152653D01*
D02*
G37*
G36*
X73961D02*
X72882Y152511D01*
X71876Y152094D01*
X71012Y151432D01*
X70350Y150568D01*
X69933Y149563D01*
X69791Y148483D01*
Y146515D01*
X69933Y145436D01*
X70350Y144430D01*
X71012Y143567D01*
X71876Y142904D01*
X72882Y142487D01*
X73961Y142345D01*
X75040Y142487D01*
X76045Y142904D01*
X76909Y143567D01*
X77571Y144430D01*
X77988Y145436D01*
X78130Y146515D01*
Y148483D01*
X77988Y149563D01*
X77571Y150568D01*
X76909Y151432D01*
X76045Y152094D01*
X75040Y152511D01*
X73961Y152653D01*
D02*
G37*
G36*
X63961D02*
X62881Y152511D01*
X61876Y152094D01*
X61012Y151432D01*
X60350Y150568D01*
X59933Y149563D01*
X59791Y148483D01*
Y146515D01*
X59933Y145436D01*
X60350Y144430D01*
X61012Y143567D01*
X61876Y142904D01*
X62881Y142487D01*
X63961Y142345D01*
X65040Y142487D01*
X66045Y142904D01*
X66909Y143567D01*
X67572Y144430D01*
X67988Y145436D01*
X68130Y146515D01*
Y148483D01*
X67988Y149563D01*
X67572Y150568D01*
X66909Y151432D01*
X66045Y152094D01*
X65040Y152511D01*
X63961Y152653D01*
D02*
G37*
G36*
X53961D02*
X52881Y152511D01*
X51876Y152094D01*
X51012Y151432D01*
X50350Y150568D01*
X49933Y149563D01*
X49791Y148483D01*
Y146515D01*
X49933Y145436D01*
X50350Y144430D01*
X51012Y143567D01*
X51876Y142904D01*
X52881Y142487D01*
X53961Y142345D01*
X55040Y142487D01*
X56045Y142904D01*
X56909Y143567D01*
X57572Y144430D01*
X57988Y145436D01*
X58130Y146515D01*
Y148483D01*
X57988Y149563D01*
X57572Y150568D01*
X56909Y151432D01*
X56045Y152094D01*
X55040Y152511D01*
X53961Y152653D01*
D02*
G37*
G36*
X43961D02*
X42882Y152511D01*
X41876Y152094D01*
X41012Y151432D01*
X40350Y150568D01*
X39933Y149563D01*
X39791Y148483D01*
Y146515D01*
X39933Y145436D01*
X40350Y144430D01*
X41012Y143567D01*
X41876Y142904D01*
X42882Y142487D01*
X43961Y142345D01*
X45040Y142487D01*
X46045Y142904D01*
X46909Y143567D01*
X47572Y144430D01*
X47988Y145436D01*
X48130Y146515D01*
Y148483D01*
X47988Y149563D01*
X47572Y150568D01*
X46909Y151432D01*
X46045Y152094D01*
X45040Y152511D01*
X43961Y152653D01*
D02*
G37*
G36*
X33961D02*
X32882Y152511D01*
X31876Y152094D01*
X31012Y151432D01*
X30350Y150568D01*
X29933Y149563D01*
X29791Y148483D01*
Y146515D01*
X29933Y145436D01*
X30350Y144430D01*
X31012Y143567D01*
X31876Y142904D01*
X32882Y142487D01*
X33961Y142345D01*
X35040Y142487D01*
X36045Y142904D01*
X36909Y143567D01*
X37571Y144430D01*
X37988Y145436D01*
X38130Y146515D01*
Y148483D01*
X37988Y149563D01*
X37571Y150568D01*
X36909Y151432D01*
X36045Y152094D01*
X35040Y152511D01*
X33961Y152653D01*
D02*
G37*
G36*
X23961D02*
X22882Y152511D01*
X21876Y152094D01*
X21012Y151432D01*
X20350Y150568D01*
X19933Y149563D01*
X19791Y148483D01*
Y146515D01*
X19933Y145436D01*
X20350Y144430D01*
X21012Y143567D01*
X21876Y142904D01*
X22882Y142487D01*
X23961Y142345D01*
X25040Y142487D01*
X26045Y142904D01*
X26909Y143567D01*
X27571Y144430D01*
X27988Y145436D01*
X28130Y146515D01*
Y148483D01*
X27988Y149563D01*
X27571Y150568D01*
X26909Y151432D01*
X26045Y152094D01*
X25040Y152511D01*
X23961Y152653D01*
D02*
G37*
G36*
X13961D02*
X12881Y152511D01*
X11876Y152094D01*
X11012Y151432D01*
X10350Y150568D01*
X9933Y149563D01*
X9791Y148483D01*
Y146515D01*
X9933Y145436D01*
X10350Y144430D01*
X11012Y143567D01*
X11876Y142904D01*
X12881Y142487D01*
X13961Y142345D01*
X15040Y142487D01*
X16045Y142904D01*
X16909Y143567D01*
X17571Y144430D01*
X17988Y145436D01*
X18130Y146515D01*
Y148483D01*
X17988Y149563D01*
X17571Y150568D01*
X16909Y151432D01*
X16045Y152094D01*
X15040Y152511D01*
X13961Y152653D01*
D02*
G37*
G36*
X3961D02*
X2881Y152511D01*
X1876Y152094D01*
X1012Y151432D01*
X350Y150568D01*
X-67Y149563D01*
X-209Y148483D01*
Y146515D01*
X-67Y145436D01*
X350Y144430D01*
X1012Y143567D01*
X1876Y142904D01*
X2881Y142487D01*
X3961Y142345D01*
X5040Y142487D01*
X6045Y142904D01*
X6909Y143567D01*
X7571Y144430D01*
X7988Y145436D01*
X8130Y146515D01*
Y148483D01*
X7988Y149563D01*
X7571Y150568D01*
X6909Y151432D01*
X6045Y152094D01*
X5040Y152511D01*
X3961Y152653D01*
D02*
G37*
G36*
X-26870Y141516D02*
X-30055D01*
Y137476D01*
X-29960Y137488D01*
X-28955Y137905D01*
X-28091Y138567D01*
X-27428Y139431D01*
X-27012Y140437D01*
X-26870Y141516D01*
Y141516D01*
D02*
G37*
G36*
X-86870D02*
X-90055D01*
Y137476D01*
X-89960Y137488D01*
X-88955Y137905D01*
X-88091Y138567D01*
X-87428Y139431D01*
X-87012Y140437D01*
X-86870Y141516D01*
Y141516D01*
D02*
G37*
G36*
X-109620D02*
X-112805D01*
Y137476D01*
X-112710Y137488D01*
X-111705Y137905D01*
X-110841Y138567D01*
X-110178Y139431D01*
X-109762Y140437D01*
X-109620Y141516D01*
Y141516D01*
D02*
G37*
G36*
X-169620D02*
X-172805D01*
Y137476D01*
X-172710Y137488D01*
X-171705Y137905D01*
X-170841Y138567D01*
X-170178Y139431D01*
X-169762Y140437D01*
X-169620Y141516D01*
Y141516D01*
D02*
G37*
G36*
X-32024D02*
X-35209D01*
Y141516D01*
X-35067Y140437D01*
X-34650Y139431D01*
X-33988Y138567D01*
X-33124Y137905D01*
X-32119Y137488D01*
X-32024Y137476D01*
Y141516D01*
D02*
G37*
G36*
X-92024D02*
X-95209D01*
Y141516D01*
X-95067Y140437D01*
X-94650Y139431D01*
X-93988Y138567D01*
X-93124Y137905D01*
X-92119Y137488D01*
X-92024Y137476D01*
Y141516D01*
D02*
G37*
G36*
X-114774D02*
X-117959D01*
Y141516D01*
X-117817Y140437D01*
X-117400Y139431D01*
X-116738Y138567D01*
X-115874Y137905D01*
X-114869Y137488D01*
X-114774Y137476D01*
Y141516D01*
D02*
G37*
G36*
X-174774D02*
X-177959D01*
Y141516D01*
X-177817Y140437D01*
X-177400Y139431D01*
X-176738Y138567D01*
X-175874Y137905D01*
X-174869Y137488D01*
X-174774Y137476D01*
Y141516D01*
D02*
G37*
G36*
X-41039Y147654D02*
X-42119Y147512D01*
X-43124Y147095D01*
X-43988Y146433D01*
X-44650Y145569D01*
X-45067Y144563D01*
X-45209Y143484D01*
Y141516D01*
X-45067Y140437D01*
X-44650Y139431D01*
X-43988Y138567D01*
X-43124Y137905D01*
X-42119Y137488D01*
X-41039Y137346D01*
X-39960Y137488D01*
X-38955Y137905D01*
X-38091Y138567D01*
X-37429Y139431D01*
X-37012Y140437D01*
X-36870Y141516D01*
Y143484D01*
X-37012Y144563D01*
X-37429Y145569D01*
X-38091Y146433D01*
X-38955Y147095D01*
X-39960Y147512D01*
X-41039Y147654D01*
D02*
G37*
G36*
X-51039D02*
X-52119Y147512D01*
X-53124Y147095D01*
X-53988Y146433D01*
X-54650Y145569D01*
X-55067Y144563D01*
X-55209Y143484D01*
Y141516D01*
X-55067Y140437D01*
X-54650Y139431D01*
X-53988Y138567D01*
X-53124Y137905D01*
X-52119Y137488D01*
X-51039Y137346D01*
X-49960Y137488D01*
X-48955Y137905D01*
X-48091Y138567D01*
X-47429Y139431D01*
X-47012Y140437D01*
X-46870Y141516D01*
Y143484D01*
X-47012Y144563D01*
X-47429Y145569D01*
X-48091Y146433D01*
X-48955Y147095D01*
X-49960Y147512D01*
X-51039Y147654D01*
D02*
G37*
G36*
X-61039D02*
X-62119Y147512D01*
X-63124Y147095D01*
X-63988Y146433D01*
X-64650Y145569D01*
X-65067Y144563D01*
X-65209Y143484D01*
Y141516D01*
X-65067Y140437D01*
X-64650Y139431D01*
X-63988Y138567D01*
X-63124Y137905D01*
X-62119Y137488D01*
X-61039Y137346D01*
X-59960Y137488D01*
X-58955Y137905D01*
X-58091Y138567D01*
X-57428Y139431D01*
X-57012Y140437D01*
X-56870Y141516D01*
Y143484D01*
X-57012Y144563D01*
X-57428Y145569D01*
X-58091Y146433D01*
X-58955Y147095D01*
X-59960Y147512D01*
X-61039Y147654D01*
D02*
G37*
G36*
X-71039D02*
X-72119Y147512D01*
X-73124Y147095D01*
X-73988Y146433D01*
X-74650Y145569D01*
X-75067Y144563D01*
X-75209Y143484D01*
Y141516D01*
X-75067Y140437D01*
X-74650Y139431D01*
X-73988Y138567D01*
X-73124Y137905D01*
X-72119Y137488D01*
X-71039Y137346D01*
X-69960Y137488D01*
X-68955Y137905D01*
X-68091Y138567D01*
X-67428Y139431D01*
X-67012Y140437D01*
X-66870Y141516D01*
Y143484D01*
X-67012Y144563D01*
X-67428Y145569D01*
X-68091Y146433D01*
X-68955Y147095D01*
X-69960Y147512D01*
X-71039Y147654D01*
D02*
G37*
G36*
X-81039D02*
X-82119Y147512D01*
X-83124Y147095D01*
X-83988Y146433D01*
X-84650Y145569D01*
X-85067Y144563D01*
X-85209Y143484D01*
Y141516D01*
X-85067Y140437D01*
X-84650Y139431D01*
X-83988Y138567D01*
X-83124Y137905D01*
X-82119Y137488D01*
X-81039Y137346D01*
X-79960Y137488D01*
X-78955Y137905D01*
X-78091Y138567D01*
X-77429Y139431D01*
X-77012Y140437D01*
X-76870Y141516D01*
Y143484D01*
X-77012Y144563D01*
X-77429Y145569D01*
X-78091Y146433D01*
X-78955Y147095D01*
X-79960Y147512D01*
X-81039Y147654D01*
D02*
G37*
G36*
X-101039D02*
X-102119Y147512D01*
X-103124Y147095D01*
X-103988Y146433D01*
X-104650Y145569D01*
X-105067Y144563D01*
X-105209Y143484D01*
Y141516D01*
X-105067Y140437D01*
X-104650Y139431D01*
X-103988Y138567D01*
X-103124Y137905D01*
X-102119Y137488D01*
X-101039Y137346D01*
X-99960Y137488D01*
X-98955Y137905D01*
X-98091Y138567D01*
X-97429Y139431D01*
X-97012Y140437D01*
X-96870Y141516D01*
Y143484D01*
X-97012Y144563D01*
X-97429Y145569D01*
X-98091Y146433D01*
X-98955Y147095D01*
X-99960Y147512D01*
X-101039Y147654D01*
D02*
G37*
G36*
X-123789D02*
X-124869Y147512D01*
X-125874Y147095D01*
X-126738Y146433D01*
X-127400Y145569D01*
X-127817Y144563D01*
X-127959Y143484D01*
Y141516D01*
X-127817Y140437D01*
X-127400Y139431D01*
X-126738Y138567D01*
X-125874Y137905D01*
X-124869Y137488D01*
X-123789Y137346D01*
X-122710Y137488D01*
X-121705Y137905D01*
X-120841Y138567D01*
X-120178Y139431D01*
X-119762Y140437D01*
X-119620Y141516D01*
Y143484D01*
X-119762Y144563D01*
X-120178Y145569D01*
X-120841Y146433D01*
X-121705Y147095D01*
X-122710Y147512D01*
X-123789Y147654D01*
D02*
G37*
G36*
X-133789D02*
X-134869Y147512D01*
X-135874Y147095D01*
X-136738Y146433D01*
X-137400Y145569D01*
X-137817Y144563D01*
X-137959Y143484D01*
Y141516D01*
X-137817Y140437D01*
X-137400Y139431D01*
X-136738Y138567D01*
X-135874Y137905D01*
X-134869Y137488D01*
X-133789Y137346D01*
X-132710Y137488D01*
X-131705Y137905D01*
X-130841Y138567D01*
X-130178Y139431D01*
X-129762Y140437D01*
X-129620Y141516D01*
Y143484D01*
X-129762Y144563D01*
X-130178Y145569D01*
X-130841Y146433D01*
X-131705Y147095D01*
X-132710Y147512D01*
X-133789Y147654D01*
D02*
G37*
G36*
X-143789D02*
X-144869Y147512D01*
X-145874Y147095D01*
X-146738Y146433D01*
X-147400Y145569D01*
X-147817Y144563D01*
X-147959Y143484D01*
Y141516D01*
X-147817Y140437D01*
X-147400Y139431D01*
X-146738Y138567D01*
X-145874Y137905D01*
X-144869Y137488D01*
X-143789Y137346D01*
X-142710Y137488D01*
X-141705Y137905D01*
X-140841Y138567D01*
X-140179Y139431D01*
X-139762Y140437D01*
X-139620Y141516D01*
Y143484D01*
X-139762Y144563D01*
X-140179Y145569D01*
X-140841Y146433D01*
X-141705Y147095D01*
X-142710Y147512D01*
X-143789Y147654D01*
D02*
G37*
G36*
X-153789D02*
X-154869Y147512D01*
X-155874Y147095D01*
X-156738Y146433D01*
X-157400Y145569D01*
X-157817Y144563D01*
X-157959Y143484D01*
Y141516D01*
X-157817Y140437D01*
X-157400Y139431D01*
X-156738Y138567D01*
X-155874Y137905D01*
X-154869Y137488D01*
X-153789Y137346D01*
X-152710Y137488D01*
X-151705Y137905D01*
X-150841Y138567D01*
X-150179Y139431D01*
X-149762Y140437D01*
X-149620Y141516D01*
Y143484D01*
X-149762Y144563D01*
X-150179Y145569D01*
X-150841Y146433D01*
X-151705Y147095D01*
X-152710Y147512D01*
X-153789Y147654D01*
D02*
G37*
G36*
X-163789D02*
X-164869Y147512D01*
X-165874Y147095D01*
X-166738Y146433D01*
X-167400Y145569D01*
X-167817Y144563D01*
X-167959Y143484D01*
Y141516D01*
X-167817Y140437D01*
X-167400Y139431D01*
X-166738Y138567D01*
X-165874Y137905D01*
X-164869Y137488D01*
X-163789Y137346D01*
X-162710Y137488D01*
X-161705Y137905D01*
X-160841Y138567D01*
X-160178Y139431D01*
X-159762Y140437D01*
X-159620Y141516D01*
Y143484D01*
X-159762Y144563D01*
X-160178Y145569D01*
X-160841Y146433D01*
X-161705Y147095D01*
X-162710Y147512D01*
X-163789Y147654D01*
D02*
G37*
G36*
X-183789D02*
X-184869Y147512D01*
X-185874Y147095D01*
X-186738Y146433D01*
X-187400Y145569D01*
X-187817Y144563D01*
X-187959Y143484D01*
Y141516D01*
X-187817Y140437D01*
X-187400Y139431D01*
X-186738Y138567D01*
X-185874Y137905D01*
X-184869Y137488D01*
X-183789Y137346D01*
X-182710Y137488D01*
X-181705Y137905D01*
X-180841Y138567D01*
X-180178Y139431D01*
X-179762Y140437D01*
X-179620Y141516D01*
Y143484D01*
X-179762Y144563D01*
X-180178Y145569D01*
X-180841Y146433D01*
X-181705Y147095D01*
X-182710Y147512D01*
X-183789Y147654D01*
D02*
G37*
G36*
X3520Y141488D02*
X-14591D01*
Y123378D01*
X3520D01*
Y141488D01*
D02*
G37*
G36*
X-83191Y127670D02*
X-89096D01*
X-90176Y127527D01*
X-91181Y127111D01*
X-92045Y126448D01*
X-92707Y125585D01*
X-93124Y124579D01*
X-93266Y123500D01*
X-93124Y122421D01*
X-92707Y121415D01*
X-92045Y120552D01*
X-91181Y119889D01*
X-90176Y119473D01*
X-89096Y119331D01*
X-83191D01*
X-82112Y119473D01*
X-81106Y119889D01*
X-80243Y120552D01*
X-79580Y121415D01*
X-79163Y122421D01*
X-79022Y123500D01*
X-79163Y124579D01*
X-79580Y125585D01*
X-80243Y126448D01*
X-81106Y127111D01*
X-82112Y127527D01*
X-83191Y127670D01*
D02*
G37*
G36*
X-164691D02*
X-170597D01*
X-171676Y127527D01*
X-172681Y127111D01*
X-173545Y126448D01*
X-174207Y125585D01*
X-174624Y124579D01*
X-174766Y123500D01*
X-174624Y122421D01*
X-174207Y121415D01*
X-173545Y120552D01*
X-172681Y119889D01*
X-171676Y119473D01*
X-170597Y119331D01*
X-164691D01*
X-163612Y119473D01*
X-162606Y119889D01*
X-161743Y120552D01*
X-161080Y121415D01*
X-160664Y122421D01*
X-160521Y123500D01*
X-160664Y124579D01*
X-161080Y125585D01*
X-161743Y126448D01*
X-162606Y127111D01*
X-163612Y127527D01*
X-164691Y127670D01*
D02*
G37*
G36*
X-79057Y115035D02*
X-85159D01*
Y111886D01*
X-79057D01*
Y115035D01*
D02*
G37*
G36*
X-160557D02*
X-166659D01*
Y111886D01*
X-160557D01*
Y115035D01*
D02*
G37*
G36*
X-168628D02*
X-174730D01*
Y111886D01*
X-168628D01*
Y115035D01*
D02*
G37*
G36*
X-87128D02*
X-93230D01*
Y111886D01*
X-87128D01*
Y115035D01*
D02*
G37*
G36*
X-79057Y109917D02*
X-85159D01*
Y106768D01*
X-79057D01*
Y109917D01*
D02*
G37*
G36*
X-87128D02*
X-93230D01*
Y106768D01*
X-87128D01*
Y109917D01*
D02*
G37*
G36*
X-160557D02*
X-166659D01*
Y106768D01*
X-160557D01*
Y109917D01*
D02*
G37*
G36*
X-168628D02*
X-174730D01*
Y106768D01*
X-168628D01*
Y109917D01*
D02*
G37*
G36*
X44000Y124677D02*
X43178Y124568D01*
X42412Y124251D01*
X41754Y123746D01*
X41249Y123088D01*
X40931Y122322D01*
X40823Y121500D01*
X40931Y120678D01*
X41249Y119912D01*
X41754Y119254D01*
X64754Y96254D01*
X65412Y95749D01*
X66178Y95432D01*
X67000Y95323D01*
X78000D01*
X78822Y95432D01*
X79588Y95749D01*
X80246Y96254D01*
X80751Y96912D01*
X81068Y97678D01*
X81177Y98500D01*
X81068Y99322D01*
X80751Y100088D01*
X80246Y100746D01*
X79588Y101251D01*
X78822Y101568D01*
X78000Y101677D01*
X68316D01*
X46246Y123746D01*
X45588Y124251D01*
X44822Y124568D01*
X44000Y124677D01*
D02*
G37*
G36*
X-96906Y97618D02*
X-105173D01*
Y87382D01*
X-96906D01*
Y97618D01*
D02*
G37*
G36*
X-179656D02*
X-187923D01*
Y87382D01*
X-179656D01*
Y97618D01*
D02*
G37*
G36*
X-31039Y97654D02*
X-32119Y97512D01*
X-33124Y97095D01*
X-33988Y96433D01*
X-34650Y95569D01*
X-35067Y94563D01*
X-35209Y93484D01*
Y91516D01*
X-35067Y90437D01*
X-34650Y89431D01*
X-33988Y88567D01*
X-33124Y87905D01*
X-32119Y87488D01*
X-31039Y87346D01*
X-29960Y87488D01*
X-28955Y87905D01*
X-28091Y88567D01*
X-27428Y89431D01*
X-27012Y90437D01*
X-26870Y91516D01*
Y93484D01*
X-27012Y94563D01*
X-27428Y95569D01*
X-28091Y96433D01*
X-28955Y97095D01*
X-29960Y97512D01*
X-31039Y97654D01*
D02*
G37*
G36*
X-41039D02*
X-42119Y97512D01*
X-43124Y97095D01*
X-43988Y96433D01*
X-44650Y95569D01*
X-45067Y94563D01*
X-45209Y93484D01*
Y91516D01*
X-45067Y90437D01*
X-44650Y89431D01*
X-43988Y88567D01*
X-43124Y87905D01*
X-42119Y87488D01*
X-41039Y87346D01*
X-39960Y87488D01*
X-38955Y87905D01*
X-38091Y88567D01*
X-37429Y89431D01*
X-37012Y90437D01*
X-36870Y91516D01*
Y93484D01*
X-37012Y94563D01*
X-37429Y95569D01*
X-38091Y96433D01*
X-38955Y97095D01*
X-39960Y97512D01*
X-41039Y97654D01*
D02*
G37*
G36*
X-51039D02*
X-52119Y97512D01*
X-53124Y97095D01*
X-53988Y96433D01*
X-54650Y95569D01*
X-55067Y94563D01*
X-55209Y93484D01*
Y91516D01*
X-55067Y90437D01*
X-54650Y89431D01*
X-53988Y88567D01*
X-53124Y87905D01*
X-52119Y87488D01*
X-51039Y87346D01*
X-49960Y87488D01*
X-48955Y87905D01*
X-48091Y88567D01*
X-47429Y89431D01*
X-47012Y90437D01*
X-46870Y91516D01*
Y93484D01*
X-47012Y94563D01*
X-47429Y95569D01*
X-48091Y96433D01*
X-48955Y97095D01*
X-49960Y97512D01*
X-51039Y97654D01*
D02*
G37*
G36*
X-61039D02*
X-62119Y97512D01*
X-63124Y97095D01*
X-63988Y96433D01*
X-64650Y95569D01*
X-65067Y94563D01*
X-65209Y93484D01*
Y91516D01*
X-65067Y90437D01*
X-64650Y89431D01*
X-63988Y88567D01*
X-63124Y87905D01*
X-62119Y87488D01*
X-61039Y87346D01*
X-59960Y87488D01*
X-58955Y87905D01*
X-58091Y88567D01*
X-57428Y89431D01*
X-57012Y90437D01*
X-56870Y91516D01*
Y93484D01*
X-57012Y94563D01*
X-57428Y95569D01*
X-58091Y96433D01*
X-58955Y97095D01*
X-59960Y97512D01*
X-61039Y97654D01*
D02*
G37*
G36*
X-71039D02*
X-72119Y97512D01*
X-73124Y97095D01*
X-73988Y96433D01*
X-74650Y95569D01*
X-75067Y94563D01*
X-75209Y93484D01*
Y91516D01*
X-75067Y90437D01*
X-74650Y89431D01*
X-73988Y88567D01*
X-73124Y87905D01*
X-72119Y87488D01*
X-71039Y87346D01*
X-69960Y87488D01*
X-68955Y87905D01*
X-68091Y88567D01*
X-67428Y89431D01*
X-67012Y90437D01*
X-66870Y91516D01*
Y93484D01*
X-67012Y94563D01*
X-67428Y95569D01*
X-68091Y96433D01*
X-68955Y97095D01*
X-69960Y97512D01*
X-71039Y97654D01*
D02*
G37*
G36*
X-81039D02*
X-82119Y97512D01*
X-83124Y97095D01*
X-83988Y96433D01*
X-84650Y95569D01*
X-85067Y94563D01*
X-85209Y93484D01*
Y91516D01*
X-85067Y90437D01*
X-84650Y89431D01*
X-83988Y88567D01*
X-83124Y87905D01*
X-82119Y87488D01*
X-81039Y87346D01*
X-79960Y87488D01*
X-78955Y87905D01*
X-78091Y88567D01*
X-77429Y89431D01*
X-77012Y90437D01*
X-76870Y91516D01*
Y93484D01*
X-77012Y94563D01*
X-77429Y95569D01*
X-78091Y96433D01*
X-78955Y97095D01*
X-79960Y97512D01*
X-81039Y97654D01*
D02*
G37*
G36*
X-91039D02*
X-92119Y97512D01*
X-93124Y97095D01*
X-93988Y96433D01*
X-94650Y95569D01*
X-95067Y94563D01*
X-95209Y93484D01*
Y91516D01*
X-95067Y90437D01*
X-94650Y89431D01*
X-93988Y88567D01*
X-93124Y87905D01*
X-92119Y87488D01*
X-91039Y87346D01*
X-89960Y87488D01*
X-88955Y87905D01*
X-88091Y88567D01*
X-87428Y89431D01*
X-87012Y90437D01*
X-86870Y91516D01*
Y93484D01*
X-87012Y94563D01*
X-87428Y95569D01*
X-88091Y96433D01*
X-88955Y97095D01*
X-89960Y97512D01*
X-91039Y97654D01*
D02*
G37*
G36*
X-113789D02*
X-114869Y97512D01*
X-115874Y97095D01*
X-116738Y96433D01*
X-117400Y95569D01*
X-117817Y94563D01*
X-117959Y93484D01*
Y91516D01*
X-117817Y90437D01*
X-117400Y89431D01*
X-116738Y88567D01*
X-115874Y87905D01*
X-114869Y87488D01*
X-113789Y87346D01*
X-112710Y87488D01*
X-111705Y87905D01*
X-110841Y88567D01*
X-110178Y89431D01*
X-109762Y90437D01*
X-109620Y91516D01*
Y93484D01*
X-109762Y94563D01*
X-110178Y95569D01*
X-110841Y96433D01*
X-111705Y97095D01*
X-112710Y97512D01*
X-113789Y97654D01*
D02*
G37*
G36*
X-123789D02*
X-124869Y97512D01*
X-125874Y97095D01*
X-126738Y96433D01*
X-127400Y95569D01*
X-127817Y94563D01*
X-127959Y93484D01*
Y91516D01*
X-127817Y90437D01*
X-127400Y89431D01*
X-126738Y88567D01*
X-125874Y87905D01*
X-124869Y87488D01*
X-123789Y87346D01*
X-122710Y87488D01*
X-121705Y87905D01*
X-120841Y88567D01*
X-120178Y89431D01*
X-119762Y90437D01*
X-119620Y91516D01*
Y93484D01*
X-119762Y94563D01*
X-120178Y95569D01*
X-120841Y96433D01*
X-121705Y97095D01*
X-122710Y97512D01*
X-123789Y97654D01*
D02*
G37*
G36*
X-133789D02*
X-134869Y97512D01*
X-135874Y97095D01*
X-136738Y96433D01*
X-137400Y95569D01*
X-137817Y94563D01*
X-137959Y93484D01*
Y91516D01*
X-137817Y90437D01*
X-137400Y89431D01*
X-136738Y88567D01*
X-135874Y87905D01*
X-134869Y87488D01*
X-133789Y87346D01*
X-132710Y87488D01*
X-131705Y87905D01*
X-130841Y88567D01*
X-130178Y89431D01*
X-129762Y90437D01*
X-129620Y91516D01*
Y93484D01*
X-129762Y94563D01*
X-130178Y95569D01*
X-130841Y96433D01*
X-131705Y97095D01*
X-132710Y97512D01*
X-133789Y97654D01*
D02*
G37*
G36*
X-143789D02*
X-144869Y97512D01*
X-145874Y97095D01*
X-146738Y96433D01*
X-147400Y95569D01*
X-147817Y94563D01*
X-147959Y93484D01*
Y91516D01*
X-147817Y90437D01*
X-147400Y89431D01*
X-146738Y88567D01*
X-145874Y87905D01*
X-144869Y87488D01*
X-143789Y87346D01*
X-142710Y87488D01*
X-141705Y87905D01*
X-140841Y88567D01*
X-140179Y89431D01*
X-139762Y90437D01*
X-139620Y91516D01*
Y93484D01*
X-139762Y94563D01*
X-140179Y95569D01*
X-140841Y96433D01*
X-141705Y97095D01*
X-142710Y97512D01*
X-143789Y97654D01*
D02*
G37*
G36*
X-153789D02*
X-154869Y97512D01*
X-155874Y97095D01*
X-156738Y96433D01*
X-157400Y95569D01*
X-157817Y94563D01*
X-157959Y93484D01*
Y91516D01*
X-157817Y90437D01*
X-157400Y89431D01*
X-156738Y88567D01*
X-155874Y87905D01*
X-154869Y87488D01*
X-153789Y87346D01*
X-152710Y87488D01*
X-151705Y87905D01*
X-150841Y88567D01*
X-150179Y89431D01*
X-149762Y90437D01*
X-149620Y91516D01*
Y93484D01*
X-149762Y94563D01*
X-150179Y95569D01*
X-150841Y96433D01*
X-151705Y97095D01*
X-152710Y97512D01*
X-153789Y97654D01*
D02*
G37*
G36*
X-163789D02*
X-164869Y97512D01*
X-165874Y97095D01*
X-166738Y96433D01*
X-167400Y95569D01*
X-167817Y94563D01*
X-167959Y93484D01*
Y91516D01*
X-167817Y90437D01*
X-167400Y89431D01*
X-166738Y88567D01*
X-165874Y87905D01*
X-164869Y87488D01*
X-163789Y87346D01*
X-162710Y87488D01*
X-161705Y87905D01*
X-160841Y88567D01*
X-160178Y89431D01*
X-159762Y90437D01*
X-159620Y91516D01*
Y93484D01*
X-159762Y94563D01*
X-160178Y95569D01*
X-160841Y96433D01*
X-161705Y97095D01*
X-162710Y97512D01*
X-163789Y97654D01*
D02*
G37*
G36*
X-173789D02*
X-174869Y97512D01*
X-175874Y97095D01*
X-176738Y96433D01*
X-177400Y95569D01*
X-177817Y94563D01*
X-177959Y93484D01*
Y91516D01*
X-177817Y90437D01*
X-177400Y89431D01*
X-176738Y88567D01*
X-175874Y87905D01*
X-174869Y87488D01*
X-173789Y87346D01*
X-172710Y87488D01*
X-171705Y87905D01*
X-170841Y88567D01*
X-170178Y89431D01*
X-169762Y90437D01*
X-169620Y91516D01*
Y93484D01*
X-169762Y94563D01*
X-170178Y95569D01*
X-170841Y96433D01*
X-171705Y97095D01*
X-172710Y97512D01*
X-173789Y97654D01*
D02*
G37*
G36*
X-70894Y81169D02*
X-71973Y81027D01*
X-72979Y80611D01*
X-73842Y79948D01*
X-74505Y79085D01*
X-74921Y78079D01*
X-75063Y77000D01*
X-74921Y75921D01*
X-74505Y74915D01*
X-73842Y74052D01*
X-72979Y73389D01*
X-71973Y72973D01*
X-70894Y72830D01*
X-69815Y72973D01*
X-68809Y73389D01*
X-67945Y74052D01*
X-67283Y74915D01*
X-66866Y75921D01*
X-66724Y77000D01*
X-66866Y78079D01*
X-67283Y79085D01*
X-67945Y79948D01*
X-68809Y80611D01*
X-69815Y81027D01*
X-70894Y81169D01*
D02*
G37*
G36*
X-80894D02*
X-81973Y81027D01*
X-82978Y80611D01*
X-83842Y79948D01*
X-84505Y79085D01*
X-84921Y78079D01*
X-85063Y77000D01*
X-84921Y75921D01*
X-84505Y74915D01*
X-83842Y74052D01*
X-82978Y73389D01*
X-81973Y72973D01*
X-80894Y72830D01*
X-79815Y72973D01*
X-78809Y73389D01*
X-77946Y74052D01*
X-77283Y74915D01*
X-76866Y75921D01*
X-76724Y77000D01*
X-76866Y78079D01*
X-77283Y79085D01*
X-77946Y79948D01*
X-78809Y80611D01*
X-79815Y81027D01*
X-80894Y81169D01*
D02*
G37*
G36*
X-90894D02*
X-91973Y81027D01*
X-92979Y80611D01*
X-93842Y79948D01*
X-94505Y79085D01*
X-94921Y78079D01*
X-95063Y77000D01*
X-94921Y75921D01*
X-94505Y74915D01*
X-93842Y74052D01*
X-92979Y73389D01*
X-91973Y72973D01*
X-90894Y72830D01*
X-89815Y72973D01*
X-88809Y73389D01*
X-87945Y74052D01*
X-87283Y74915D01*
X-86866Y75921D01*
X-86724Y77000D01*
X-86866Y78079D01*
X-87283Y79085D01*
X-87945Y79948D01*
X-88809Y80611D01*
X-89815Y81027D01*
X-90894Y81169D01*
D02*
G37*
G36*
X-154000D02*
X-155079Y81027D01*
X-156085Y80611D01*
X-156948Y79948D01*
X-157611Y79085D01*
X-158027Y78079D01*
X-158169Y77000D01*
X-158027Y75921D01*
X-157611Y74915D01*
X-156948Y74052D01*
X-156085Y73389D01*
X-155079Y72973D01*
X-154000Y72830D01*
X-152921Y72973D01*
X-151915Y73389D01*
X-151052Y74052D01*
X-150389Y74915D01*
X-149973Y75921D01*
X-149830Y77000D01*
X-149973Y78079D01*
X-150389Y79085D01*
X-151052Y79948D01*
X-151915Y80611D01*
X-152921Y81027D01*
X-154000Y81169D01*
D02*
G37*
G36*
X-164000D02*
X-165079Y81027D01*
X-166085Y80611D01*
X-166948Y79948D01*
X-167611Y79085D01*
X-168027Y78079D01*
X-168169Y77000D01*
X-168027Y75921D01*
X-167611Y74915D01*
X-166948Y74052D01*
X-166085Y73389D01*
X-165079Y72973D01*
X-164000Y72830D01*
X-162921Y72973D01*
X-161915Y73389D01*
X-161052Y74052D01*
X-160389Y74915D01*
X-159973Y75921D01*
X-159830Y77000D01*
X-159973Y78079D01*
X-160389Y79085D01*
X-161052Y79948D01*
X-161915Y80611D01*
X-162921Y81027D01*
X-164000Y81169D01*
D02*
G37*
G36*
X-174000D02*
X-175079Y81027D01*
X-176085Y80611D01*
X-176948Y79948D01*
X-177611Y79085D01*
X-178027Y78079D01*
X-178170Y77000D01*
X-178027Y75921D01*
X-177611Y74915D01*
X-176948Y74052D01*
X-176085Y73389D01*
X-175079Y72973D01*
X-174000Y72830D01*
X-172921Y72973D01*
X-171915Y73389D01*
X-171052Y74052D01*
X-170389Y74915D01*
X-169973Y75921D01*
X-169831Y77000D01*
X-169973Y78079D01*
X-170389Y79085D01*
X-171052Y79948D01*
X-171915Y80611D01*
X-172921Y81027D01*
X-174000Y81169D01*
D02*
G37*
G36*
X-86760Y71134D02*
X-95028D01*
Y62866D01*
X-86760D01*
Y71134D01*
D02*
G37*
G36*
X-169866D02*
X-178134D01*
Y62866D01*
X-169866D01*
Y71134D01*
D02*
G37*
G36*
X-70894Y71170D02*
X-71973Y71027D01*
X-72979Y70611D01*
X-73842Y69948D01*
X-74505Y69085D01*
X-74921Y68079D01*
X-75063Y67000D01*
X-74921Y65921D01*
X-74505Y64915D01*
X-73842Y64052D01*
X-72979Y63389D01*
X-71973Y62973D01*
X-70894Y62831D01*
X-69815Y62973D01*
X-68809Y63389D01*
X-67945Y64052D01*
X-67283Y64915D01*
X-66866Y65921D01*
X-66724Y67000D01*
X-66866Y68079D01*
X-67283Y69085D01*
X-67945Y69948D01*
X-68809Y70611D01*
X-69815Y71027D01*
X-70894Y71170D01*
D02*
G37*
G36*
X-80894D02*
X-81973Y71027D01*
X-82978Y70611D01*
X-83842Y69948D01*
X-84505Y69085D01*
X-84921Y68079D01*
X-85063Y67000D01*
X-84921Y65921D01*
X-84505Y64915D01*
X-83842Y64052D01*
X-82978Y63389D01*
X-81973Y62973D01*
X-80894Y62831D01*
X-79815Y62973D01*
X-78809Y63389D01*
X-77946Y64052D01*
X-77283Y64915D01*
X-76866Y65921D01*
X-76724Y67000D01*
X-76866Y68079D01*
X-77283Y69085D01*
X-77946Y69948D01*
X-78809Y70611D01*
X-79815Y71027D01*
X-80894Y71170D01*
D02*
G37*
G36*
X-154000D02*
X-155079Y71027D01*
X-156085Y70611D01*
X-156948Y69948D01*
X-157611Y69085D01*
X-158027Y68079D01*
X-158169Y67000D01*
X-158027Y65921D01*
X-157611Y64915D01*
X-156948Y64052D01*
X-156085Y63389D01*
X-155079Y62973D01*
X-154000Y62831D01*
X-152921Y62973D01*
X-151915Y63389D01*
X-151052Y64052D01*
X-150389Y64915D01*
X-149973Y65921D01*
X-149830Y67000D01*
X-149973Y68079D01*
X-150389Y69085D01*
X-151052Y69948D01*
X-151915Y70611D01*
X-152921Y71027D01*
X-154000Y71170D01*
D02*
G37*
G36*
X-164000D02*
X-165079Y71027D01*
X-166085Y70611D01*
X-166948Y69948D01*
X-167611Y69085D01*
X-168027Y68079D01*
X-168169Y67000D01*
X-168027Y65921D01*
X-167611Y64915D01*
X-166948Y64052D01*
X-166085Y63389D01*
X-165079Y62973D01*
X-164000Y62831D01*
X-162921Y62973D01*
X-161915Y63389D01*
X-161052Y64052D01*
X-160389Y64915D01*
X-159973Y65921D01*
X-159830Y67000D01*
X-159973Y68079D01*
X-160389Y69085D01*
X-161052Y69948D01*
X-161915Y70611D01*
X-162921Y71027D01*
X-164000Y71170D01*
D02*
G37*
G36*
X161984Y71016D02*
X153520D01*
Y62551D01*
X161984D01*
Y71016D01*
D02*
G37*
G36*
X151551D02*
X143087D01*
Y62551D01*
X151551D01*
Y71016D01*
D02*
G37*
G36*
X3913D02*
X-4551D01*
Y62551D01*
X3913D01*
Y71016D01*
D02*
G37*
G36*
X-6520D02*
X-14984D01*
Y62551D01*
X-6520D01*
Y71016D01*
D02*
G37*
G36*
X-110500Y83558D02*
X-112230Y83422D01*
X-113917Y83017D01*
X-115520Y82353D01*
X-117000Y81446D01*
X-118319Y80319D01*
X-119446Y79000D01*
X-120352Y77520D01*
X-121017Y75917D01*
X-121422Y74230D01*
X-121558Y72500D01*
X-121422Y70770D01*
X-121017Y69083D01*
X-120352Y67480D01*
X-119446Y66000D01*
X-118319Y64681D01*
X-117000Y63554D01*
X-115520Y62647D01*
X-113917Y61984D01*
X-112230Y61578D01*
X-110500Y61442D01*
X-108770Y61578D01*
X-107083Y61984D01*
X-105480Y62647D01*
X-104000Y63554D01*
X-102681Y64681D01*
X-101554Y66000D01*
X-100647Y67480D01*
X-99984Y69083D01*
X-99578Y70770D01*
X-99442Y72500D01*
X-99578Y74230D01*
X-99984Y75917D01*
X-100647Y77520D01*
X-101554Y79000D01*
X-102681Y80319D01*
X-104000Y81446D01*
X-105480Y82353D01*
X-107083Y83017D01*
X-108770Y83422D01*
X-110500Y83558D01*
D02*
G37*
G36*
X161984Y60583D02*
X153520D01*
Y52118D01*
X161984D01*
Y60583D01*
D02*
G37*
G36*
X-6520Y60583D02*
X-14984D01*
Y52118D01*
X-6520D01*
Y60583D01*
D02*
G37*
G36*
X134945Y52523D02*
Y48483D01*
X138130D01*
Y48483D01*
X137988Y49562D01*
X137572Y50568D01*
X136909Y51432D01*
X136045Y52094D01*
X135040Y52511D01*
X134945Y52523D01*
D02*
G37*
G36*
X132976D02*
X132881Y52511D01*
X131876Y52094D01*
X131012Y51432D01*
X130350Y50568D01*
X129933Y49562D01*
X129791Y48483D01*
Y48483D01*
X132976D01*
Y52523D01*
D02*
G37*
G36*
X138130Y46515D02*
X134945D01*
Y42475D01*
X135040Y42487D01*
X136045Y42904D01*
X136909Y43567D01*
X137572Y44430D01*
X137988Y45436D01*
X138130Y46515D01*
Y46515D01*
D02*
G37*
G36*
X132976D02*
X129791D01*
Y46515D01*
X129933Y45436D01*
X130350Y44430D01*
X131012Y43567D01*
X131876Y42904D01*
X132881Y42487D01*
X132976Y42475D01*
Y46515D01*
D02*
G37*
G36*
X3913Y60583D02*
X-4551D01*
Y52118D01*
X-173D01*
Y42381D01*
X8095D01*
Y52617D01*
X3913D01*
Y60583D01*
D02*
G37*
G36*
X151551Y60583D02*
X143087D01*
Y52538D01*
X142882Y52511D01*
X141876Y52094D01*
X141012Y51432D01*
X140350Y50568D01*
X139933Y49562D01*
X139791Y48483D01*
Y46515D01*
X139933Y45436D01*
X140350Y44430D01*
X141012Y43567D01*
X141876Y42904D01*
X142882Y42487D01*
X143961Y42345D01*
X145040Y42487D01*
X146045Y42904D01*
X146909Y43567D01*
X147572Y44430D01*
X147988Y45436D01*
X148130Y46515D01*
Y48483D01*
X147988Y49562D01*
X147572Y50568D01*
X146909Y51432D01*
X146666Y51618D01*
X146836Y52118D01*
X151551D01*
Y60583D01*
D02*
G37*
G36*
X123961Y52653D02*
X122881Y52511D01*
X121876Y52094D01*
X121012Y51432D01*
X120350Y50568D01*
X119933Y49562D01*
X119791Y48483D01*
Y46515D01*
X119933Y45436D01*
X120350Y44430D01*
X121012Y43567D01*
X121876Y42904D01*
X122881Y42487D01*
X123961Y42345D01*
X125040Y42487D01*
X126045Y42904D01*
X126909Y43567D01*
X127571Y44430D01*
X127988Y45436D01*
X128130Y46515D01*
Y48483D01*
X127988Y49562D01*
X127571Y50568D01*
X126909Y51432D01*
X126045Y52094D01*
X125040Y52511D01*
X123961Y52653D01*
D02*
G37*
G36*
X113961D02*
X112882Y52511D01*
X111876Y52094D01*
X111012Y51432D01*
X110350Y50568D01*
X109933Y49562D01*
X109791Y48483D01*
Y46515D01*
X109933Y45436D01*
X110350Y44430D01*
X111012Y43567D01*
X111876Y42904D01*
X112882Y42487D01*
X113961Y42345D01*
X115040Y42487D01*
X116045Y42904D01*
X116909Y43567D01*
X117571Y44430D01*
X117988Y45436D01*
X118130Y46515D01*
Y48483D01*
X117988Y49562D01*
X117571Y50568D01*
X116909Y51432D01*
X116045Y52094D01*
X115040Y52511D01*
X113961Y52653D01*
D02*
G37*
G36*
X103961D02*
X102882Y52511D01*
X101876Y52094D01*
X101012Y51432D01*
X100350Y50568D01*
X99933Y49562D01*
X99791Y48483D01*
Y46515D01*
X99933Y45436D01*
X100350Y44430D01*
X101012Y43567D01*
X101876Y42904D01*
X102882Y42487D01*
X103961Y42345D01*
X105040Y42487D01*
X106045Y42904D01*
X106909Y43567D01*
X107571Y44430D01*
X107988Y45436D01*
X108130Y46515D01*
Y48483D01*
X107988Y49562D01*
X107571Y50568D01*
X106909Y51432D01*
X106045Y52094D01*
X105040Y52511D01*
X103961Y52653D01*
D02*
G37*
G36*
X93961D02*
X92882Y52511D01*
X91876Y52094D01*
X91012Y51432D01*
X90350Y50568D01*
X89933Y49562D01*
X89791Y48483D01*
Y46515D01*
X89933Y45436D01*
X90350Y44430D01*
X91012Y43567D01*
X91876Y42904D01*
X92882Y42487D01*
X93961Y42345D01*
X95040Y42487D01*
X96045Y42904D01*
X96909Y43567D01*
X97571Y44430D01*
X97988Y45436D01*
X98130Y46515D01*
Y48483D01*
X97988Y49562D01*
X97571Y50568D01*
X96909Y51432D01*
X96045Y52094D01*
X95040Y52511D01*
X93961Y52653D01*
D02*
G37*
G36*
X83961D02*
X82881Y52511D01*
X81876Y52094D01*
X81012Y51432D01*
X80350Y50568D01*
X79933Y49562D01*
X79791Y48483D01*
Y46515D01*
X79933Y45436D01*
X80350Y44430D01*
X81012Y43567D01*
X81876Y42904D01*
X82881Y42487D01*
X83961Y42345D01*
X85040Y42487D01*
X86045Y42904D01*
X86909Y43567D01*
X87572Y44430D01*
X87988Y45436D01*
X88130Y46515D01*
Y48483D01*
X87988Y49562D01*
X87572Y50568D01*
X86909Y51432D01*
X86045Y52094D01*
X85040Y52511D01*
X83961Y52653D01*
D02*
G37*
G36*
X73961D02*
X72882Y52511D01*
X71876Y52094D01*
X71012Y51432D01*
X70350Y50568D01*
X69933Y49562D01*
X69791Y48483D01*
Y46515D01*
X69933Y45436D01*
X70350Y44430D01*
X71012Y43567D01*
X71876Y42904D01*
X72882Y42487D01*
X73961Y42345D01*
X75040Y42487D01*
X76045Y42904D01*
X76909Y43567D01*
X77571Y44430D01*
X77988Y45436D01*
X78130Y46515D01*
Y48483D01*
X77988Y49562D01*
X77571Y50568D01*
X76909Y51432D01*
X76045Y52094D01*
X75040Y52511D01*
X73961Y52653D01*
D02*
G37*
G36*
X63961D02*
X62881Y52511D01*
X61876Y52094D01*
X61012Y51432D01*
X60350Y50568D01*
X59933Y49562D01*
X59791Y48483D01*
Y46515D01*
X59933Y45436D01*
X60350Y44430D01*
X61012Y43567D01*
X61876Y42904D01*
X62881Y42487D01*
X63961Y42345D01*
X65040Y42487D01*
X66045Y42904D01*
X66909Y43567D01*
X67572Y44430D01*
X67988Y45436D01*
X68130Y46515D01*
Y48483D01*
X67988Y49562D01*
X67572Y50568D01*
X66909Y51432D01*
X66045Y52094D01*
X65040Y52511D01*
X63961Y52653D01*
D02*
G37*
G36*
X53961D02*
X52881Y52511D01*
X51876Y52094D01*
X51012Y51432D01*
X50350Y50568D01*
X49933Y49562D01*
X49791Y48483D01*
Y46515D01*
X49933Y45436D01*
X50350Y44430D01*
X51012Y43567D01*
X51876Y42904D01*
X52881Y42487D01*
X53961Y42345D01*
X55040Y42487D01*
X56045Y42904D01*
X56909Y43567D01*
X57572Y44430D01*
X57988Y45436D01*
X58130Y46515D01*
Y48483D01*
X57988Y49562D01*
X57572Y50568D01*
X56909Y51432D01*
X56045Y52094D01*
X55040Y52511D01*
X53961Y52653D01*
D02*
G37*
G36*
X43961D02*
X42882Y52511D01*
X41876Y52094D01*
X41012Y51432D01*
X40350Y50568D01*
X39933Y49562D01*
X39791Y48483D01*
Y46515D01*
X39933Y45436D01*
X40350Y44430D01*
X41012Y43567D01*
X41876Y42904D01*
X42882Y42487D01*
X43961Y42345D01*
X45040Y42487D01*
X46045Y42904D01*
X46909Y43567D01*
X47572Y44430D01*
X47988Y45436D01*
X48130Y46515D01*
Y48483D01*
X47988Y49562D01*
X47572Y50568D01*
X46909Y51432D01*
X46045Y52094D01*
X45040Y52511D01*
X43961Y52653D01*
D02*
G37*
G36*
X33961D02*
X32882Y52511D01*
X31876Y52094D01*
X31012Y51432D01*
X30350Y50568D01*
X29933Y49562D01*
X29791Y48483D01*
Y46515D01*
X29933Y45436D01*
X30350Y44430D01*
X31012Y43567D01*
X31876Y42904D01*
X32882Y42487D01*
X33961Y42345D01*
X35040Y42487D01*
X36045Y42904D01*
X36909Y43567D01*
X37571Y44430D01*
X37988Y45436D01*
X38130Y46515D01*
Y48483D01*
X37988Y49562D01*
X37571Y50568D01*
X36909Y51432D01*
X36045Y52094D01*
X35040Y52511D01*
X33961Y52653D01*
D02*
G37*
G36*
X23961D02*
X22882Y52511D01*
X21876Y52094D01*
X21012Y51432D01*
X20350Y50568D01*
X19933Y49562D01*
X19791Y48483D01*
Y46515D01*
X19933Y45436D01*
X20350Y44430D01*
X21012Y43567D01*
X21876Y42904D01*
X22882Y42487D01*
X23961Y42345D01*
X25040Y42487D01*
X26045Y42904D01*
X26909Y43567D01*
X27571Y44430D01*
X27988Y45436D01*
X28130Y46515D01*
Y48483D01*
X27988Y49562D01*
X27571Y50568D01*
X26909Y51432D01*
X26045Y52094D01*
X25040Y52511D01*
X23961Y52653D01*
D02*
G37*
G36*
X13961D02*
X12881Y52511D01*
X11876Y52094D01*
X11012Y51432D01*
X10350Y50568D01*
X9933Y49562D01*
X9791Y48483D01*
Y46515D01*
X9933Y45436D01*
X10350Y44430D01*
X11012Y43567D01*
X11876Y42904D01*
X12881Y42487D01*
X13961Y42345D01*
X15040Y42487D01*
X16045Y42904D01*
X16909Y43567D01*
X17571Y44430D01*
X17988Y45436D01*
X18130Y46515D01*
Y48483D01*
X17988Y49562D01*
X17571Y50568D01*
X16909Y51432D01*
X16045Y52094D01*
X15040Y52511D01*
X13961Y52653D01*
D02*
G37*
%LPD*%
D28*
X67000Y98500D02*
X78000D01*
X44000Y121500D02*
X67000Y98500D01*
D32*
X3961Y147499D02*
D03*
X13961D02*
D03*
X23961D02*
D03*
X33961D02*
D03*
X43961D02*
D03*
X53961D02*
D03*
X63961D02*
D03*
X73961D02*
D03*
X83961D02*
D03*
X93961D02*
D03*
X103961D02*
D03*
X113961D02*
D03*
X123961D02*
D03*
X133961D02*
D03*
X143961D02*
D03*
Y47499D02*
D03*
X133961D02*
D03*
X123961D02*
D03*
X113961D02*
D03*
X103961D02*
D03*
X93961D02*
D03*
X83961D02*
D03*
X73961D02*
D03*
X63961D02*
D03*
X53961D02*
D03*
X43961D02*
D03*
X33961D02*
D03*
X23961D02*
D03*
X13961D02*
D03*
X-113789Y142500D02*
D03*
X-183789D02*
D03*
X-173789D02*
D03*
X-163789D02*
D03*
X-153789D02*
D03*
X-143789D02*
D03*
X-133789D02*
D03*
X-123789D02*
D03*
X-113789Y92500D02*
D03*
X-123789D02*
D03*
X-133789D02*
D03*
X-143789D02*
D03*
X-153789D02*
D03*
X-163789D02*
D03*
X-173789D02*
D03*
X-31039Y142500D02*
D03*
X-101039D02*
D03*
X-91039D02*
D03*
X-81039D02*
D03*
X-71039D02*
D03*
X-61039D02*
D03*
X-51039D02*
D03*
X-41039D02*
D03*
X-31039Y92500D02*
D03*
X-41039D02*
D03*
X-51039D02*
D03*
X-61039D02*
D03*
X-71039D02*
D03*
X-81039D02*
D03*
X-91039D02*
D03*
D33*
X3961Y47499D02*
D03*
X-183789Y92500D02*
D03*
X-101039D02*
D03*
D34*
X-142500Y170000D02*
D03*
X-170059D02*
D03*
X-156280D02*
D03*
X-128720D02*
D03*
X-87089D02*
D03*
X-45750D02*
D03*
X-59530D02*
D03*
X-73309D02*
D03*
X134500Y169500D02*
D03*
X148280D02*
D03*
X15500Y170000D02*
D03*
X1720D02*
D03*
X-12059D02*
D03*
X67279D02*
D03*
X53500D02*
D03*
X39720D02*
D03*
D35*
X-108000Y177165D02*
D03*
X177165D02*
D03*
X-110500Y72500D02*
D03*
D36*
X-70894Y77000D02*
D03*
Y67000D02*
D03*
X-80894Y77000D02*
D03*
Y67000D02*
D03*
X-90894Y77000D02*
D03*
X-154000D02*
D03*
Y67000D02*
D03*
X-164000Y77000D02*
D03*
Y67000D02*
D03*
X-174000Y77000D02*
D03*
D37*
X-90894Y67000D02*
D03*
X-174000D02*
D03*
D38*
X-86144Y123500D02*
D03*
X-167644D02*
D03*
D39*
X-86144Y110902D02*
D03*
X-167644D02*
D03*
D40*
X78000Y98500D02*
D03*
X0Y127000D02*
D03*
X-5500D02*
D03*
X-11000D02*
D03*
X0Y132500D02*
D03*
X-5500D02*
D03*
X-11000D02*
D03*
X-5500Y138000D02*
D03*
X0D02*
D03*
X-11000D02*
D03*
X44000Y121500D02*
D03*
D41*
X-5535Y132433D02*
D03*
Y61567D02*
D03*
X152535D02*
D03*
Y132433D02*
D03*
D42*
X154500Y134398D02*
Y163279D01*
X148280Y169500D02*
X154500Y163279D01*
X152535Y132433D02*
X154500Y134398D01*
M02*
