<?xml version="1.0" encoding="UTF-8"?><svg id="Icon" xmlns="http://www.w3.org/2000/svg" xmlns:xlink="http://www.w3.org/1999/xlink" viewBox="0 0 1024 1024"><defs><style>.cls-1{fill:#1c1c1c;}.cls-2{fill:url(#linear-gradient);}.cls-3{filter:url(#AI_Shadow_2);}.cls-4{fill:#fff;}</style><filter id="AI_Shadow_2" x="-15%" y="-15%" width="140%" height="130%"><feGaussianBlur in="SourceAlpha" result="blur" stdDeviation="6"/><feOffset dx="0" dy="8" in="blur" result="offsetBlurredAlpha"/><feMerge><feMergeNode in="offsetBlurredAlpha"/><feMergeNode in="SourceGraphic"/></feMerge></filter><linearGradient id="linear-gradient" x1="512" y1="1025.2011388" x2="512" y2="-2.7827077" gradientUnits="userSpaceOnUse"><stop offset=".0021964" stop-color="#4a4a4a"/><stop offset="1" stop-color="#c4c4c4"/></linearGradient></defs><rect class="cls-1" width="1024" height="1024"/><path class="cls-3" d="M831.047619,751.2857143h-239.2857143v-31.9047619h-31.9047619v-63.8095238h31.9047619v-31.9047619h143.5714286c30.7081386,0,55.8333333-25.1251947,55.8333333-55.8333333v-251.25c0-30.7081386-25.1251947-55.8333333-55.8333333-55.8333333h-67.005063c-9.21176,0-19.131368-7.1505301-22.0435733-15.890067l-17.3154994-51.9640241c-2.9131789-8.7424578-12.8366815-15.8959089-22.0523362-15.8959089h-189.8337228c-9.214681,0-19.1372099,7.1524774-22.0494152,15.8939616l-17.3145258,51.9601295c-2.9131789,8.7424578-12.8366815,15.8959089-22.0523362,15.8959089h-67.0001947c-30.7081386,0-55.8333333,25.1251947-55.8333333,55.8333333v251.25c0,30.7081386,25.1251947,55.8333333,55.8333333,55.8333333h143.5714286v31.9047619h31.9047619v63.8095238h-31.9047619v31.9047619h-239.2857143c-26.4308675,0-47.8571429,21.4262753-47.8571429,47.8571429s21.4262753,47.8571429,47.8571429,47.8571429h638.0952381c26.4308675,0,47.8571429-21.4262753,47.8571429-47.8571429s-21.4262753-47.8571429-47.8571429-47.8571429ZM715.7920561,316.5443871c10.7978457,0,19.5412772,8.7541417,19.5412772,19.5412772,0,10.7988194-8.7492734,19.5422509-19.5412772,19.5422509-10.7871355,0-19.5422509-8.7434315-19.5422509-19.5422509,0-10.7871355,8.7551153-19.5412772,19.5422509-19.5412772ZM372.4166667,428.25c0-77.0833769,62.4941145-139.5833333,139.5833333-139.5833333,77.077535,0,139.5833333,62.4999564,139.5833333,139.5833333,0,77.0892189-62.5057983,139.5833333-139.5833333,139.5833333-77.0892189,0-139.5833333-62.4941145-139.5833333-139.5833333ZM595.75,428.25c0,46.2583996-37.5032843,83.75-83.75,83.75-46.2583996,0-83.75-37.4916004-83.75-83.75,0-46.2408738,37.4916004-83.75,83.75-83.75,46.2467157,0,83.75,37.5091262,83.75,83.75Z"/><path class="cls-2" d="M831.047619,751.2857143h-239.2857143v-31.9047619h-31.9047619v-63.8095238h31.9047619v-31.9047619h143.5714286c30.7081386,0,55.8333333-25.1251947,55.8333333-55.8333333v-251.25c0-30.7081386-25.1251947-55.8333333-55.8333333-55.8333333h-67.005063c-9.21176,0-19.131368-7.1505301-22.0435733-15.890067l-17.3154994-51.9640241c-2.9131789-8.7424578-12.8366815-15.8959089-22.0523362-15.8959089h-189.8337228c-9.214681,0-19.1372099,7.1524774-22.0494152,15.8939616l-17.3145258,51.9601295c-2.9131789,8.7424578-12.8366815,15.8959089-22.0523362,15.8959089h-67.0001947c-30.7081386,0-55.8333333,25.1251947-55.8333333,55.8333333v251.25c0,30.7081386,25.1251947,55.8333333,55.8333333,55.8333333h143.5714286v31.9047619h31.9047619v63.8095238h-31.9047619v31.9047619h-239.2857143c-26.4308675,0-47.8571429,21.4262753-47.8571429,47.8571429s21.4262753,47.8571429,47.8571429,47.8571429h638.0952381c26.4308675,0,47.8571429-21.4262753,47.8571429-47.8571429s-21.4262753-47.8571429-47.8571429-47.8571429ZM715.7920561,316.5443871c10.7978457,0,19.5412772,8.7541417,19.5412772,19.5412772,0,10.7988194-8.7492734,19.5422509-19.5412772,19.5422509-10.7871355,0-19.5422509-8.7434315-19.5422509-19.5422509,0-10.7871355,8.7551153-19.5412772,19.5422509-19.5412772ZM372.4166667,428.25c0-77.0833769,62.4941145-139.5833333,139.5833333-139.5833333,77.077535,0,139.5833333,62.4999564,139.5833333,139.5833333,0,77.0892189-62.5057983,139.5833333-139.5833333,139.5833333-77.0892189,0-139.5833333-62.4941145-139.5833333-139.5833333ZM595.75,428.25c0,46.2583996-37.5032843,83.75-83.75,83.75-46.2583996,0-83.75-37.4916004-83.75-83.75,0-46.2408738,37.4916004-83.75,83.75-83.75,46.2467157,0,83.75,37.5091262,83.75,83.75Z"/><path class="cls-4" d="M696.2498169,339.0856323c0-.5061035.0379639-1.0028076.0758057-1.4992676.7689209,10.0942993,9.1854248,18.0415649,19.4664307,18.0415649,10.2857666,0,18.6972656-7.9475098,19.4655151-18.0419922.0378418.4966431.0757446.9934082.0757446,1.4996948,0,10.7988281-8.7492676,19.5422974-19.5412598,19.5422974-10.7871094,0-19.5422363-8.7434692-19.5422363-19.5422974ZM591.7619019,754.2857056h239.2857056c25.9277954,0,47.0249634,20.6220703,47.8192749,46.3571167.0154419-.4993286.0379028-.9968872.0379028-1.5,0-26.4308472-21.4262695-47.8571167-47.8571777-47.8571167h-239.2857056v3ZM559.8571167,722.3809204h31.9047852v-3h-31.9047852v3ZM512,344.5c-46.2584229,0-83.75,37.5090942-83.75,83.75,0,.5031738.0290527.9992065.0379028,1.5002441.8034058-45.5466919,37.9568481-82.2502441,83.7120972-82.2502441,45.7436523,0,82.9083862,36.7035522,83.7120361,82.2502441.0088501-.5010376.0379639-.9970703.0379639-1.5002441,0-46.2409058-37.5032959-83.75-83.75-83.75ZM192.9523926,754.2857056h239.2857056v-3h-239.2857056c-26.4309082,0-47.8571777,21.4262695-47.8571777,47.8571167,0,.5031128.0224609,1.0006714.0379028,1.5.7943115-25.7350464,21.8914795-46.3571167,47.8192749-46.3571167ZM288.666687,263.75h67.0001831c9.2156372,0,19.1391602-7.1534424,22.0523071-15.8959351l17.3145752-51.960144c2.9121704-8.7414551,12.8347168-15.8939209,22.0493774-15.8939209h189.8337402c9.2156372,0,19.1391602,7.1534424,22.0523071,15.895874l17.3154907,51.9640503c2.9122314,8.739502,12.8318481,15.8900757,22.0435791,15.8900757h67.0050659c30.7081299,0,55.833374,25.1251831,55.833374,55.833313v-3c0-30.7081299-25.1252441-55.833313-55.833374-55.833313h-67.0050659c-9.211731,0-19.1313477-7.1505737-22.0435791-15.8900757l-17.3154907-51.9640503c-2.913147-8.7424316-12.8366699-15.895874-22.0523071-15.895874h-189.8337402c-9.2146606,0-19.137207,7.1524658-22.0493774,15.8939209l-17.3145752,51.960144c-2.913147,8.7424927-12.8366699,15.8959351-22.0523071,15.8959351h-67.0001831c-30.7081299,0-55.833374,25.1251831-55.833374,55.833313v3c0-30.7081299,25.1252441-55.833313,55.833374-55.833313ZM512,570.833313c77.0775146,0,139.583313-62.4940796,139.583313-139.583313,0-.5014648-.0137329-.9996948-.0189819-1.499939-.8060913,76.3969727-62.9882812,138.083252-139.5643311,138.083252-76.5877075,0-138.7584839-61.6862793-139.5643311-138.083252-.005249.5002441-.0189819.9984741-.0189819,1.499939,0,77.0892334,62.4940796,139.583313,139.583313,139.583313ZM464.1428833,719.3809204h-31.9047852v3h31.9047852v-3Z"/></svg>