<?xml version="1.0" encoding="UTF-8"?>
<svg id="Icon" xmlns="http://www.w3.org/2000/svg" version="1.1" viewBox="0 0 16 16">
  <path d="M10.1809893,6.6914062c0-1.2044277-.9766531-2.1809893-2.1809893-2.1809893-1.2045193,0-2.1809893.9765615-2.1809893,2.1809893,0,1.2045183.97647,2.1809893,2.1809893,2.1809893,1.2043362,0,2.1809893-.97647,2.1809893-2.1809893ZM8,8c-.7227869,0-1.3085938-.5858068-1.3085938-1.3085938,0-.7225142.5858068-1.3085938,1.3085938-1.3085938.7226048,0,1.3085938.5860796,1.3085938,1.3085938,0,.7227869-.585989,1.3085938-1.3085938,1.3085938ZM10.8789034,5.251339c0-.1685495.1367989-.3053331.3053474-.3053331.1687164,0,.3053322.1367836.3053322.3053322,0,.1687317-.1367073.3053484-.3053322.3053484-.1685486,0-.3053474-.1366167-.3053474-.3053474ZM0,3v10c0,1.6568542,1.3431458,3,3,3h10c1.6568542,0,3-1.3431458,3-3V3c0-1.6568542-1.3431458-3-3-3H3C1.3431458,0,0,1.3431458,0,3ZM12.9851189,13.234375H3.0148811c-.4129829,0-.7477684-.3347855-.7477684-.7477674s.3347864-.7477674.7477684-.7477674h3.7388391v-.4985123h.4985123v-.9970236h-.4985123v-.4985123h-2.2433033c-.4798145,0-.8723955-.392581-.8723955-.8723955v-3.9257822c0-.4798145.392581-.8723955.8723955-.8723955h1.0468779c.1439953,0,.2990494-.1117725.3445683-.248374l.2705393-.8118773c.0455027-.1365852.2005424-.2483425.3445215-.2483425h2.9661522c.1439943,0,.2990484.1117725.3445673.248373l.2705545.8119383c.0455036.1365547.2004976.2482815.3444309.2482815h1.0469542c.4798145,0,.8723955.3925819.8723955.8723965v3.9257812c0,.4798145-.392581.8723955-.8723955.8723955h-2.2433033v.4985123h-.4985123v.9970236h.4985123v.4985123h3.7388391v.000001c.412982,0,.7477674.3347855.7477674.7477674s-.3347855.7477674-.7477674.7477674Z"/>
</svg>